<svg width="746" height="544" viewBox="0 0 746 544" fill="none" xmlns="http://www.w3.org/2000/svg">
<path opacity="0.0845424" d="M674.32 164.249C683.698 151.73 701.454 149.18 713.979 158.552C726.379 167.83 729.005 185.315 719.957 197.81L719.68 198.187L645.38 297.373C635.916 310.007 618.34 313.21 605.041 304.802L604.639 304.544L557.865 273.948L510.705 342.593C501.937 355.356 484.564 358.693 471.702 350.17L471.313 349.908C458.543 341.146 455.204 323.783 463.732 310.928L463.994 310.539L525.793 220.586C534.999 207.185 553.141 203.492 566.841 212.144L567.255 212.41L614.898 243.574L674.32 164.249Z" fill="#7367F0"/>
<path opacity="0.0845424" d="M431.118 3.29424C433.496 -0.160162 438.232 -1.03872 441.696 1.33194C445.115 3.67139 446.018 8.30087 443.756 11.7421L443.664 11.8791L425.148 38.779C422.433 42.5698 417.181 43.4829 413.345 40.8606L413.208 40.7654L402.574 33.1946L391.048 51.4538C388.839 54.9536 384.234 56.0368 380.696 53.9185L380.557 53.8332C377.047 51.6305 375.96 47.0392 378.085 43.5109L378.17 43.3722L393.455 19.158C395.973 15.169 401.257 13.9705 405.258 16.4812L405.467 16.6168L405.673 16.7584L416.53 24.4883L431.118 3.29424Z" fill="#7367F0"/>
<path opacity="0.070266" fill-rule="evenodd" clip-rule="evenodd" d="M633.403 129.308C634.784 129.308 635.903 128.189 635.903 126.808V108.831H653.892C655.273 108.831 656.392 107.712 656.392 106.331V97.676C656.392 96.2953 655.273 95.176 653.892 95.176H635.903V77.0663C635.903 75.6856 634.784 74.5663 633.403 74.5663H624.608C623.227 74.5663 622.108 75.6856 622.108 77.0663V95.176H604.119C602.738 95.176 601.619 96.2953 601.619 97.676V106.331C601.619 107.712 602.738 108.831 604.119 108.831H622.108V126.808C622.108 128.189 623.227 129.308 624.608 129.308H633.403Z" fill="#00CFE8"/>
<path opacity="0.0739397" fill-rule="evenodd" clip-rule="evenodd" d="M92.6028 20C143.194 20 184.207 60.9886 184.207 111.551C184.207 162.113 143.194 203.101 92.6028 203.101C42.0113 203.101 0.998779 162.113 0.998779 111.551C0.998779 60.9886 42.0113 20 92.6028 20ZM92.6028 65.3034C67.0462 65.3034 46.3286 86.0089 46.3286 111.551C46.3286 137.092 67.0462 157.798 92.6028 157.798C118.159 157.798 138.877 137.092 138.877 111.551C138.877 86.0089 118.159 65.3034 92.6028 65.3034Z" fill="#00CFE8"/>
<path fill-rule="evenodd" clip-rule="evenodd" d="M61.5964 101C61.5964 92.1634 68.7599 85 77.5964 85H547.725C556.561 85 563.725 92.1634 563.725 101V305.224C563.725 314.061 556.561 321.224 547.725 321.224H77.5965C68.7599 321.224 61.5964 314.061 61.5964 305.224V101Z" fill="#E7FCFF"/>
<path opacity="0.383371" fill-rule="evenodd" clip-rule="evenodd" d="M69.1472 101C69.1472 92.1634 76.3107 85 85.1472 85H547.725C556.561 85 563.725 92.1634 563.725 101V305.224C563.725 314.061 556.561 321.224 547.725 321.224H85.1472C76.3107 321.224 69.1472 314.061 69.1472 305.224V101Z" fill="#00CFE8"/>
<path fill-rule="evenodd" clip-rule="evenodd" d="M76.698 102.559C76.698 97.0364 81.1752 92.5592 86.698 92.5592H546.174C551.697 92.5592 556.174 97.0364 556.174 102.559V303.665C556.174 309.188 551.697 313.665 546.174 313.665H86.698C81.1752 313.665 76.698 309.188 76.698 303.665L76.698 102.559Z" fill="#E7FCFF"/>
<path fill-rule="evenodd" clip-rule="evenodd" d="M275.85 299.822C275.85 296.509 278.537 293.822 281.85 293.822H351.021C354.335 293.822 357.021 296.509 357.021 299.822V313.665H275.85V299.822Z" fill="#D4EFFF"/>
<path d="M283.401 299.822C283.401 296.509 286.088 293.822 289.401 293.822H358.572C361.886 293.822 364.572 296.509 364.572 299.822V321.224H283.401V299.822Z" fill="#91D6FF"/>
<g filter="url(#filter0_dd)">
<path fill-rule="evenodd" clip-rule="evenodd" d="M90.8557 107.397C90.8557 104.421 93.2683 102.008 96.2445 102.008H221.268C224.244 102.008 226.657 104.421 226.657 107.397V148.047C226.657 151.023 224.244 153.436 221.268 153.436H96.2445C93.2683 153.436 90.8557 151.023 90.8557 148.047V107.397Z" fill="white"/>
</g>
<path opacity="0.454078" fill-rule="evenodd" clip-rule="evenodd" d="M131.037 132.559C131.037 131.716 131.721 131.032 132.564 131.032H157.992C158.835 131.032 159.519 131.716 159.519 132.559C159.519 133.403 158.835 134.087 157.992 134.087H132.564C131.721 134.087 131.037 133.403 131.037 132.559Z" fill="#C7C1FF"/>
<path fill-rule="evenodd" clip-rule="evenodd" d="M131.037 123.903C131.037 123.059 131.721 122.376 132.564 122.376H147.819C148.663 122.376 149.347 123.059 149.347 123.903C149.347 124.747 148.663 125.431 147.819 125.431H132.564C131.721 125.431 131.037 124.747 131.037 123.903Z" fill="#102247"/>
<path fill-rule="evenodd" clip-rule="evenodd" d="M205.813 120.284C207.983 117.429 212.053 116.876 214.904 119.049C215.56 119.548 216.115 120.169 216.539 120.876C216.757 121.241 216.639 121.714 216.275 121.933C215.911 122.151 215.438 122.033 215.22 121.668C214.896 121.128 214.473 120.655 213.973 120.274C211.842 118.651 208.818 119.022 207.14 121.085L207.037 121.216L204.652 124.353C200.927 129.254 194.624 131.414 188.693 129.848L188.439 129.779L186.52 129.237C186.397 129.202 186.272 129.171 186.147 129.143C182.639 128.369 179.168 130.541 178.309 134.011L178.269 134.182L177.873 135.98C177.733 136.617 177.462 137.217 177.076 137.741C175.55 139.817 172.633 140.262 170.559 138.735C170.217 138.483 170.144 138.001 170.395 137.659C170.647 137.316 171.129 137.243 171.471 137.495C172.86 138.518 174.815 138.22 175.837 136.829C176.063 136.521 176.231 136.175 176.332 135.808L176.371 135.649L176.767 133.851C177.735 129.451 182.083 126.67 186.478 127.639L186.709 127.694L186.938 127.755L188.857 128.297C194.172 129.799 199.857 127.946 203.272 123.622L203.428 123.421L205.813 120.284Z" fill="#102247"/>
<path fill-rule="evenodd" clip-rule="evenodd" d="M198.882 119.353C200.452 115.857 204.557 114.297 208.049 115.869C208.751 116.184 209.395 116.615 209.956 117.143C211.275 118.384 212.497 120.347 213.642 123.035C213.808 123.426 213.627 123.878 213.236 124.045C212.845 124.212 212.394 124.03 212.227 123.639C211.158 121.13 210.043 119.338 208.902 118.264C208.466 117.854 207.965 117.519 207.419 117.273C204.75 116.072 201.623 117.22 200.353 119.838L200.285 119.985L199.79 121.086C199.675 121.343 199.542 121.591 199.394 121.83C197.566 124.766 193.707 125.664 190.774 123.834C190.425 123.616 190.042 123.458 189.641 123.366C187.689 122.919 185.745 124.102 185.23 126.022L185.197 126.157L184.341 129.899C184.083 131.026 183.535 132.067 182.753 132.917C180.312 135.571 176.214 135.785 173.513 133.434L173.369 133.305L169.883 130.092C169.57 129.804 169.55 129.317 169.838 129.004C170.107 128.712 170.548 128.675 170.86 128.906L170.925 128.959L174.411 132.173C176.484 134.084 179.713 133.95 181.621 131.875C182.176 131.271 182.577 130.543 182.792 129.754L182.841 129.555L183.697 125.813C184.344 122.985 187.159 121.217 189.984 121.865C190.481 121.979 190.958 122.165 191.4 122.416L191.588 122.527C193.8 123.907 196.71 123.23 198.088 121.016C198.163 120.896 198.232 120.772 198.296 120.646L198.387 120.455L198.882 119.353Z" fill="#C7C1FF"/>
<ellipse cx="113.489" cy="128.231" rx="10.4267" ry="10.4383" fill="#102247"/>
<g filter="url(#filter1_dd)">
<path fill-rule="evenodd" clip-rule="evenodd" d="M90.8557 165.592C90.8557 162.83 93.0943 160.592 95.8557 160.592H254.805C257.566 160.592 259.805 162.83 259.805 165.592V298.271C259.805 301.033 257.566 303.271 254.805 303.271H95.8557C93.0943 303.271 90.8557 301.033 90.8557 298.271V165.592Z" fill="white"/>
</g>
<mask id="mask0" mask-type="alpha" maskUnits="userSpaceOnUse" x="90" y="160" width="170" height="144">
<path fill-rule="evenodd" clip-rule="evenodd" d="M90.8557 165.592C90.8557 162.83 93.0943 160.592 95.8557 160.592H254.805C257.566 160.592 259.805 162.83 259.805 165.592V298.271C259.805 301.033 257.566 303.271 254.805 303.271H95.8557C93.0943 303.271 90.8557 301.033 90.8557 298.271V165.592Z" fill="white"/>
</mask>
<g mask="url(#mask0)">
<g filter="url(#filter2_d)">
<path d="M113.508 270.2C113.508 270.2 133.593 264.426 142.449 252.639C151.305 240.853 154.291 229.428 169.522 229.428C184.754 229.428 186.707 246.926 203.172 246.926C219.638 246.926 220.538 224.612 226.011 215.752C231.483 206.892 240.928 206.892 240.928 206.892" stroke="#8EEAF6" stroke-width="4.004" stroke-linecap="round"/>
</g>
<path opacity="0.414737" fill-rule="evenodd" clip-rule="evenodd" d="M113.508 268.982C113.508 268.982 133.593 263.232 142.449 251.497C151.305 239.761 154.291 228.386 169.522 228.386C184.754 228.386 186.707 245.808 203.172 245.808C219.638 245.808 220.538 223.591 226.011 214.769C231.483 205.947 240.928 205.947 240.928 205.947V280.349C240.928 282.05 239.549 283.429 237.848 283.429H116.588C114.887 283.429 113.508 282.05 113.508 280.349V268.982Z" fill="#CEF9FF"/>
<rect x="104.07" y="174.765" width="52.8556" height="5.66939" rx="2.83469" fill="#8EEAF6"/>
<path fill-rule="evenodd" clip-rule="evenodd" d="M104.07 191.773C104.07 190.208 105.339 188.939 106.904 188.939H125.775C127.341 188.939 128.61 190.208 128.61 191.773C128.61 193.339 127.341 194.608 125.775 194.608H106.904C105.339 194.608 104.07 193.339 104.07 191.773Z" fill="#8EEAF6" fill-opacity="0.401934"/>
<ellipse cx="227.242" cy="178.072" rx="3.30348" ry="3.30714" fill="#8EEAF6" fill-opacity="0.451705"/>
<ellipse cx="236.681" cy="178.072" rx="3.30348" ry="3.30714" fill="#8EEAF6" fill-opacity="0.451705"/>
<ellipse cx="246.119" cy="178.072" rx="3.30348" ry="3.30714" fill="#8EEAF6" fill-opacity="0.451705"/>
</g>
<g filter="url(#filter3_d)">
<path fill-rule="evenodd" clip-rule="evenodd" d="M286.233 122.721C286.233 118.588 289.584 115.237 293.717 115.237H518.93C523.063 115.237 526.414 118.588 526.414 122.721V273.237C526.414 277.371 523.063 280.721 518.93 280.721H293.717C289.584 280.721 286.233 277.371 286.233 273.237V122.721Z" fill="white"/>
</g>
<path fill-rule="evenodd" clip-rule="evenodd" d="M326.852 200.101V259.287H318.021V200.101H326.852Z" fill="#E7E4FF"/>
<path fill-rule="evenodd" clip-rule="evenodd" d="M326.852 214.245V259.287H318.021V214.245H326.852Z" fill="#C7C1FF"/>
<path fill-rule="evenodd" clip-rule="evenodd" d="M326.852 242.533V259.287H318.021V242.533H326.852Z" fill="#102247"/>
<path fill-rule="evenodd" clip-rule="evenodd" d="M348.044 185.957V259.287H339.214V185.957H348.044Z" fill="#E7E4FF"/>
<path fill-rule="evenodd" clip-rule="evenodd" d="M348.044 207.173V259.287H339.214V207.173H348.044Z" fill="#C7C1FF"/>
<path fill-rule="evenodd" clip-rule="evenodd" d="M348.044 242.533V259.287H339.214V242.533H348.044Z" fill="#102247"/>
<path fill-rule="evenodd" clip-rule="evenodd" d="M369.237 196.565V259.287H360.406V196.565H369.237Z" fill="#E7E4FF"/>
<path fill-rule="evenodd" clip-rule="evenodd" d="M369.237 217.781V259.287H360.406V217.781H369.237Z" fill="#C7C1FF"/>
<path fill-rule="evenodd" clip-rule="evenodd" d="M369.237 246.069V259.287H360.406V246.069H369.237Z" fill="#102247"/>
<path fill-rule="evenodd" clip-rule="evenodd" d="M390.429 178.885V259.287H381.599V178.885H390.429Z" fill="#E7E4FF"/>
<path fill-rule="evenodd" clip-rule="evenodd" d="M390.429 200.101V259.287H381.599V200.101H390.429Z" fill="#C7C1FF"/>
<path fill-rule="evenodd" clip-rule="evenodd" d="M390.429 228.389V259.287H381.599V228.389H390.429Z" fill="#102247"/>
<path fill-rule="evenodd" clip-rule="evenodd" d="M411.622 164.741V259.287H402.792V164.741H411.622Z" fill="#E7E4FF"/>
<path fill-rule="evenodd" clip-rule="evenodd" d="M411.622 193.029V259.287H402.792V193.029H411.622Z" fill="#C7C1FF"/>
<path fill-rule="evenodd" clip-rule="evenodd" d="M411.622 235.461V259.287H402.792V235.461H411.622Z" fill="#102247"/>
<path fill-rule="evenodd" clip-rule="evenodd" d="M432.814 185.957V259.287H423.984V185.957H432.814Z" fill="#E7E4FF"/>
<path fill-rule="evenodd" clip-rule="evenodd" d="M432.814 207.173V259.287H423.984V207.173H432.814Z" fill="#C7C1FF"/>
<path fill-rule="evenodd" clip-rule="evenodd" d="M432.814 239.704V259.287H423.984V239.704H432.814Z" fill="#102247"/>
<path fill-rule="evenodd" clip-rule="evenodd" d="M454.006 193.029V259.287H445.176V193.029H454.006Z" fill="#E7E4FF"/>
<path fill-rule="evenodd" clip-rule="evenodd" d="M454.006 207.173V259.287H445.176V207.173H454.006Z" fill="#C7C1FF"/>
<path fill-rule="evenodd" clip-rule="evenodd" d="M454.006 234.753V259.287H445.176V234.753H454.006Z" fill="#102247"/>
<path fill-rule="evenodd" clip-rule="evenodd" d="M475.199 178.885V259.287H466.369V178.885H475.199Z" fill="#E7E4FF"/>
<path fill-rule="evenodd" clip-rule="evenodd" d="M475.199 207.173V259.287H466.369V207.173H475.199Z" fill="#C7C1FF"/>
<path fill-rule="evenodd" clip-rule="evenodd" d="M475.199 241.825V259.287H466.369V241.825H475.199Z" fill="#102247"/>
<path fill-rule="evenodd" clip-rule="evenodd" d="M496.391 193.029V259.287H487.561V193.029H496.391Z" fill="#E7E4FF"/>
<path fill-rule="evenodd" clip-rule="evenodd" d="M496.391 207.173V259.287H487.561V207.173H496.391Z" fill="#C7C1FF"/>
<path fill-rule="evenodd" clip-rule="evenodd" d="M496.391 241.825V259.287H487.561V241.825H496.391Z" fill="#102247"/>
<path opacity="0.57573" fill-rule="evenodd" clip-rule="evenodd" d="M315.196 145.646C315.196 144.475 316.146 143.525 317.318 143.525H387.954C389.126 143.525 390.076 144.475 390.076 145.646C390.076 146.818 389.126 147.768 387.954 147.768H317.318C316.146 147.768 315.196 146.818 315.196 145.646Z" fill="#8C81FF"/>
<rect x="315.196" y="131.502" width="39.5593" height="4.2432" rx="2.1216" fill="#102247"/>
<path fill-rule="evenodd" clip-rule="evenodd" d="M559.04 449.882L570.483 540.29L564.484 540.21L553.041 450.728L559.04 449.882Z" fill="#BFE7FF"/>
<path fill-rule="evenodd" clip-rule="evenodd" d="M481.617 464.093C476.4 464.093 472.171 459.864 472.171 454.648C472.171 449.431 476.4 445.203 481.617 445.203H519.379C525.1 445.203 529.882 440.849 530.418 435.153L536.456 370.96C536.992 365.264 541.774 360.91 547.495 360.91H571.196C577.654 360.91 582.746 366.408 582.251 372.848L576.027 453.855C575.583 459.632 570.765 464.093 564.971 464.093H481.617Z" fill="#91D6FF"/>
<path fill-rule="evenodd" clip-rule="evenodd" d="M472.173 454.567C472.225 454.568 472.277 454.569 472.329 454.569H555.459C561.253 454.569 566.069 450.109 566.515 444.332L572.734 363.614C572.802 362.734 572.765 361.872 572.635 361.038C572.084 360.954 571.518 360.91 570.942 360.91H547.353C541.633 360.91 536.851 365.262 536.314 370.957L530.281 434.916C529.744 440.611 524.962 444.963 519.242 444.963H481.592C476.389 444.963 472.171 449.181 472.171 454.384C472.171 454.445 472.172 454.506 472.173 454.567Z" fill="#BFE7FF"/>
<path fill-rule="evenodd" clip-rule="evenodd" d="M546.275 345.34C558.474 342.498 559.277 325.746 550.003 319.935C559.567 299.875 537.45 279.958 522.3 292.241C512.368 287.987 504.114 304.586 513.356 317.478C509.481 339.613 517.367 345.335 531.584 345.578L546.275 345.34Z" fill="#422851"/>
<path fill-rule="evenodd" clip-rule="evenodd" d="M546.124 341.339C546.124 341.339 540.19 339.946 539.984 330.217C539.778 320.489 539.923 317.169 539.923 317.169L526.852 316.933C526.852 316.933 526.71 327.775 526.708 331.696C526.702 342.229 519.367 341.339 519.367 341.339C519.367 341.339 520.892 349.88 532.735 350.546C541.982 351.067 546.124 341.339 546.124 341.339Z" fill="url(#paint0_linear)"/>
<path fill-rule="evenodd" clip-rule="evenodd" d="M542.969 312.311C548.8 312.085 547.849 320.625 541.792 320.614C541.792 320.614 538.274 332.746 526.06 332.746C516.141 332.746 515.495 318.606 515.405 315.785C515.309 312.777 515.296 302.896 515.296 302.896L543.196 302.883L542.969 312.311Z" fill="url(#paint1_linear)"/>
<path d="M528.415 324.596C528.415 324.596 525.506 327.06 522.136 324.752" stroke="#F77B7B" stroke-width="1.5" stroke-linecap="round"/>
<path d="M526.494 327.45C525.589 327.868 524.718 327.898 523.94 327.482" stroke="#F49494" stroke-linecap="round"/>
<path d="M542.375 316.904C542.315 315.534 542.733 314.446 544.129 314.227" stroke="#F77B7B" stroke-linecap="round"/>
<path fill-rule="evenodd" clip-rule="evenodd" d="M543.892 311.256C543.892 311.256 540.696 315.546 540.049 315.569C539.401 315.592 539.175 309.989 539.175 309.989C535.254 309.689 525.333 307.712 522.9 303.107C521.2 307.171 517.948 308.975 515.812 308.629L515.407 317.262L514.41 299.906H544.674L543.892 311.256Z" fill="#422851"/>
<path fill-rule="evenodd" clip-rule="evenodd" d="M486.404 512.891C486.404 512.891 491.635 523.462 487.347 526.793C483.052 530.125 471.708 536.368 471.708 536.368L501.762 534.478L495.082 511.424L486.404 512.891Z" fill="url(#paint2_linear)"/>
<path fill-rule="evenodd" clip-rule="evenodd" d="M498.855 522.951C497.372 523.125 498.956 528.121 495.745 528.501C492.54 528.88 490.982 524.147 487.345 525.647C483.709 527.148 470.445 534.906 469.923 538.078C469.394 541.249 474.336 542.182 481.113 541.466C487.89 540.75 489.139 538.337 494.227 539.309C499.308 540.28 503.114 538.732 502.947 535.017C502.779 531.303 500.338 522.778 498.855 522.951Z" fill="#222D4E"/>
<path fill-rule="evenodd" clip-rule="evenodd" d="M485.687 526.417L486.347 527.407C486.67 527.893 486.511 528.551 486.002 528.835L477.037 533.841C476.746 534.003 476.393 534.01 476.096 533.86L474.705 533.153C476.89 531.569 478.678 530.379 480.653 529.21C482.17 528.313 483.848 527.388 485.687 526.417Z" fill="white" fill-opacity="0.540975"/>
<path fill-rule="evenodd" clip-rule="evenodd" d="M531.677 419.725C522.578 420.131 471.938 431.338 462.738 433.242C453.538 435.146 445.759 445.448 452.775 457.377C460.655 470.769 480.986 508.8 485.922 517.373C488.366 521.616 500.691 519.237 497.796 512.115C492.399 498.838 489.892 465.485 476.132 453.324C476.132 453.324 522.408 461.382 542.398 452.152C556.926 445.442 553.639 418.742 531.677 419.725Z" fill="url(#paint3_linear)"/>
<path fill-rule="evenodd" clip-rule="evenodd" d="M467.209 365.893C467.209 365.893 467.312 358.486 464.723 354.615C462.133 350.744 462.03 346.632 460.07 346.766C458.11 346.901 460.051 356.459 460.051 356.459C460.051 356.459 457.564 355.508 455.778 354.306C453.991 353.103 448.574 347.176 447.309 348.226C445.162 350.016 448.619 360.111 450.502 362.13C452.391 364.148 462.711 370.787 462.711 370.787L467.209 365.893Z" fill="url(#paint4_linear)"/>
<path fill-rule="evenodd" clip-rule="evenodd" d="M523.123 361.454C518.89 371.276 511.141 389.32 507.946 394.703C503.942 401.444 497.629 404.414 490.237 399.413C482.469 394.157 461.082 373.657 460.455 369.014C459.833 364.37 465.068 358.799 469.805 361.683C474.541 364.568 494.223 380.956 494.223 380.956C494.223 380.956 502.166 360.583 508.556 348.782C514.089 338.572 529.565 346.523 523.123 361.454Z" fill="#6A5EE3"/>
<path fill-rule="evenodd" clip-rule="evenodd" d="M494.141 380.966C494.141 380.966 492.008 388.206 491.509 387.787C491.01 387.368 491.89 379.074 491.89 379.074L494.141 380.966Z" fill="black" fill-opacity="0.302803"/>
<path fill-rule="evenodd" clip-rule="evenodd" d="M565.421 349.62C565.421 349.62 555.221 383.791 554.919 390.259C554.617 396.728 563.261 415.74 561.79 420.545C558.396 431.65 515.073 436.431 513.418 421.493C512.646 414.526 514.252 408.273 512.401 400.064C510.557 391.855 503.143 379.657 507.348 368.188C511.553 356.719 510.426 346.109 513.434 344.103C516.442 342.098 523.473 339.968 523.473 339.968C526.892 345.002 538.435 344.929 543.942 339.613C543.942 339.613 557.625 342.269 565.421 349.62Z" fill="#7367F0"/>
<path fill-rule="evenodd" clip-rule="evenodd" d="M556.281 355.154C549.482 365.949 549.503 384.745 545.851 387.206C542.2 389.668 527.988 387.252 527.988 389.202C527.988 391.151 547.628 409.016 544.404 417.557C542.716 422.029 543.174 426.029 545.778 429.559L546.628 429.373C554.366 427.624 560.587 424.482 561.79 420.545C563.262 415.74 553.62 396.728 553.922 390.259C554.179 384.768 562.285 359.316 564.73 351.748C562.74 348.234 559.924 349.37 556.281 355.154Z" fill="black" fill-opacity="0.199355"/>
<path fill-rule="evenodd" clip-rule="evenodd" d="M544.688 383.794C544.688 383.794 536.097 376.187 533.467 375.304C530.837 374.421 515.434 373.36 515.532 375.355C515.642 377.493 523.915 377.37 524.772 378.421C525.629 379.472 525.824 386.659 529.064 387.465C532.298 388.272 541.993 389.663 541.993 389.663L544.688 383.794Z" fill="url(#paint5_linear)"/>
<path fill-rule="evenodd" clip-rule="evenodd" d="M567.543 351.583C576.594 364.364 584.321 383.833 587.288 391.423C590.254 399.013 587.262 410.462 574.218 408.214C561.199 405.973 540.483 393.792 538.191 390.239C535.899 386.686 539.381 380.221 543.766 381.067C547.829 381.85 567.979 390.423 567.979 390.423C567.979 390.423 555.016 367.432 551.85 361.269C546.562 350.976 559.57 340.322 567.543 351.583Z" fill="#6A5EE3"/>
<path fill-rule="evenodd" clip-rule="evenodd" d="M567.774 390.265C567.774 390.265 574.564 393.641 573.736 392.225C572.908 390.81 565.183 385.837 565.183 385.837L567.774 390.265Z" fill="black" fill-opacity="0.302803"/>
<path fill-rule="evenodd" clip-rule="evenodd" d="M235.062 509.194C235.062 509.194 234.925 517.906 240.272 521C245.618 524.095 253.9 529.844 253.9 529.844L222.392 530.913L223.29 509.116L235.062 509.194Z" fill="#F8CFCF"/>
<path fill-rule="evenodd" clip-rule="evenodd" d="M221.292 518.794L220.779 532.926H228.098L228.599 531.105C228.599 531.105 231.355 530.992 232.947 531.779C234.63 532.61 234.856 533.014 234.856 533.014L258.07 533.063C258.07 533.063 259.215 528.495 252.139 525.191C245.063 521.887 239.91 517.197 238.932 516.717C237.946 516.233 235.957 515.96 234.556 517.096C233.156 518.232 232.048 521.219 228.874 521.312C224.789 521.433 222.442 516.404 221.292 518.794Z" fill="#4B4B4B"/>
<path d="M241.131 518.25L238.724 520.577" stroke="white" stroke-width="2" stroke-linecap="round"/>
<path d="M244.64 520.014L242.233 522.342" stroke="white" stroke-width="2" stroke-linecap="round"/>
<path d="M248.149 521.779L245.742 524.107" stroke="white" stroke-width="2" stroke-linecap="round"/>
<path fill-rule="evenodd" clip-rule="evenodd" d="M212 321C212 321 220.754 417.38 221.026 424.079C221.298 430.779 218.214 442.342 218.274 454.874C218.334 467.406 219.401 511.575 219.401 511.575L238.71 511.984C238.71 511.984 246.826 432.167 246.913 420.198C247 408.229 247.744 322.152 247.744 322.152L212 321Z" fill="#383838"/>
<path opacity="0.283552" fill-rule="evenodd" clip-rule="evenodd" d="M225.919 427.079L225.94 427.318C226.231 431.404 223.693 444.846 218.328 467.645L218.275 454.874C218.216 442.565 221.189 431.192 221.037 424.443L221.026 424.079C220.934 421.822 219.879 409.379 218.521 393.872L219.155 396.143C222.878 409.595 225.133 419.908 225.919 427.079Z" fill="white" fill-opacity="0.192499"/>
<path fill-rule="evenodd" clip-rule="evenodd" d="M188.477 507.966L184.753 530.525L198.481 530.456L198.916 507.613L188.477 507.966Z" fill="#F8CFCF"/>
<path fill-rule="evenodd" clip-rule="evenodd" d="M187 517.724C185.656 518.015 184.683 519.182 184.637 520.556L184.526 523.91C182.584 526.064 181.667 532.287 181.57 532.977C181.564 533.02 181.561 533.061 181.565 533.105C181.85 536.154 201.82 536.116 203.694 533.249C203.779 533.118 203.785 532.963 203.76 532.809C203.55 531.538 202.435 525.385 200.289 523.707L200.277 520.384C200.272 519.031 199.361 517.849 198.054 517.498L195.991 516.944C193.984 514.017 191.249 514.121 188.906 517.31L187 517.724Z" fill="#4B4B4B"/>
<path d="M189.686 519.748H195.243" stroke="white" stroke-width="2" stroke-linecap="round"/>
<path d="M189.686 522.393H195.243" stroke="white" stroke-width="2" stroke-linecap="round"/>
<path d="M190.569 525.037H194.359" stroke="white" stroke-width="2" stroke-linecap="round"/>
<path fill-rule="evenodd" clip-rule="evenodd" d="M195.401 322.265C195.401 322.265 189.267 388.331 189.35 400.982C189.434 413.635 191.238 419.191 188.67 428.267C186.102 437.343 183.912 509.786 183.912 509.786L202.903 511.864C202.903 511.864 215.035 434.346 216.355 423.599C217.674 412.851 233.98 321.353 233.98 321.353L195.401 322.265Z" fill="#2E2E2E"/>
<path opacity="0.283552" fill-rule="evenodd" clip-rule="evenodd" d="M200.53 367.105L199.372 371.298C195.98 383.673 192.849 396.76 193.669 415.455L193.709 416.309C193.91 420.358 191.334 443.861 185.98 486.816L185.471 489.835C184.946 492.915 184.478 495.542 184.068 497.717L184.185 493.913C184.867 472.914 186.704 435.215 188.67 428.267C191.238 419.191 189.434 413.635 189.35 400.982C189.292 392.126 192.28 357.097 194.078 336.877L195.401 322.265L203.417 322.076L203.437 324.326C203.578 345.099 202.609 359.358 200.53 367.105Z" fill="white" fill-opacity="0.192499"/>
<path fill-rule="evenodd" clip-rule="evenodd" d="M288.835 240.566C288.835 240.566 287.249 231.828 287.819 230.058C288.306 228.529 292.908 226.324 292.908 226.324C292.908 226.324 300.913 213.818 302.664 215.091C304.09 216.123 298.496 225.343 298.496 225.343C298.496 225.343 303.597 230.636 303.525 233.002C303.454 235.368 295.2 242.774 295.2 242.774L288.835 240.566Z" fill="#F8CFCF"/>
<path fill-rule="evenodd" clip-rule="evenodd" d="M293.08 226.198C293.08 226.198 296.625 225.721 297.189 226.812C297.67 227.742 294.725 230.379 294.725 231.12C294.725 231.861 294.767 237.472 295.004 237.523C295.241 237.574 298.555 228.367 297.849 226.42C297.267 224.821 293.08 226.198 293.08 226.198Z" fill="#F28585"/>
<path fill-rule="evenodd" clip-rule="evenodd" d="M246.546 251.684C237.261 243.662 223.317 258.124 238.865 271.569C244.796 276.699 263.428 289.493 267.995 292.307C275.266 296.785 281.242 292.744 283.697 285.698C285.78 279.723 298.238 247.743 296.653 243.046C295.619 239.982 290.071 237.001 287.286 239.412C283.216 242.935 270.766 273.839 270.766 273.839C270.766 273.839 257.103 260.805 246.546 251.684Z" fill="#877BFF"/>
<path fill-rule="evenodd" clip-rule="evenodd" d="M270.766 273.839C270.766 273.839 274.844 278.786 275.138 278.03C275.433 277.275 271.904 270.918 271.904 270.918L270.766 273.839Z" fill="black" fill-opacity="0.159856"/>
<path d="M286.204 241.393C289.444 239.893 292.983 241.748 294.934 244.723" stroke="#5386BF" stroke-linecap="round"/>
<path fill-rule="evenodd" clip-rule="evenodd" d="M206.741 242.431C206.741 242.431 212.08 241.203 212.265 232.628C212.45 224.053 212.32 221.126 212.32 221.126L224.976 220.918C224.976 220.918 225.104 230.474 225.106 233.931C225.111 241.457 230.812 243.49 230.812 243.49C230.812 243.49 230.338 251.718 219.683 252.306C211.364 252.765 206.741 242.431 206.741 242.431Z" fill="#F8C5C5"/>
<path fill-rule="evenodd" clip-rule="evenodd" d="M236.251 211.881L235.968 219.986C238.36 217.23 239.975 213.814 240.454 209.433L236.251 211.881Z" fill="url(#paint6_linear)"/>
<path fill-rule="evenodd" clip-rule="evenodd" d="M211.158 216.791C205.913 216.592 206.768 224.12 212.217 224.11C212.217 224.11 218.074 235.654 227.268 235.683C231.696 235.698 233.142 231.831 234.47 229.116C235.797 226.401 236.772 222.34 236.853 219.853C236.94 217.202 236.951 208.493 236.951 208.493L210.954 208.481L211.158 216.791Z" fill="#F8CFCF"/>
<path fill-rule="evenodd" clip-rule="evenodd" d="M236.951 212.489H218.668C218.476 215.728 217.378 218.417 214.592 220.401C214.671 225.146 216.29 228.6 219.098 231.023C221.542 224.155 236.495 226.034 235.407 230.515C233.122 239.929 211.707 240.142 213.006 218.476C212.152 217.334 209.097 217.12 208.091 218.262C206.373 213.529 207.106 206.832 212.074 205.864C208.174 195.777 261.196 193.643 236.951 212.489Z" fill="#424242"/>
<path d="M225.236 230.099C225.236 230.099 227.618 231.815 230.754 229.939" stroke="#CC6969" stroke-linecap="round"/>
<path d="M211.976 221.089C212.03 219.881 211.654 218.922 210.398 218.729" stroke="#DE6767" stroke-linecap="round"/>
<path fill-rule="evenodd" clip-rule="evenodd" d="M209.089 241L224.192 250.796L231.001 242.887C231.001 242.887 245.348 247.327 248.01 252.518C251.85 260.008 246.79 320.022 248.996 323.643C253.696 331.36 247.447 336.658 226.757 338.604C206.067 340.55 187.711 338.957 191.042 328.658C194.374 318.359 181.519 251.147 192.852 247.445C196.393 246.288 209.089 241 209.089 241Z" fill="#7367F0"/>
<path fill-rule="evenodd" clip-rule="evenodd" d="M198.897 259.529C199.811 261.144 199.34 266.737 197.482 276.309C195.9 284.464 197.709 292.899 202.487 299.705L202.755 300.081C204.371 302.311 205.86 305.247 207.224 308.888C210.567 317.82 202.855 325.266 208.765 339.239L208.05 339.205C196.455 338.606 188.79 335.623 191.042 328.658C193.774 320.214 185.624 273.51 188.847 254.921C194.426 256.015 197.776 257.551 198.897 259.529Z" fill="black" fill-opacity="0.159856"/>
<path fill-rule="evenodd" clip-rule="evenodd" d="M209.089 241L222.598 249.795C220.618 252.093 219.556 254.766 219.155 257.709C213.963 253.656 208.566 247.992 206.894 241.902L209.089 241Z" fill="#5E54C7"/>
<path fill-rule="evenodd" clip-rule="evenodd" d="M225.259 249.566C227.544 251.109 229.366 253.839 230.849 256.944C232.628 253.376 233.309 248.664 233.309 243.639L231.078 242.759L225.259 249.566Z" fill="#5E54C7"/>
<path fill-rule="evenodd" clip-rule="evenodd" d="M222.598 249.794L222.775 249.893C223.584 250.344 224.594 250.211 225.259 249.566C230.352 268.207 233.934 288.724 235.018 309.576L229.702 318.39L223.485 310.141C224.295 288.47 224.289 267.339 222.598 249.794Z" fill="#CBC6FF"/>
<path d="M236.082 296.99C236.228 295.598 237.504 294.607 238.889 294.81L251.195 296.609C252.503 296.8 253.427 297.99 253.289 299.304L251.08 320.318C250.934 321.711 249.659 322.701 248.273 322.499L235.968 320.7C234.659 320.509 233.735 319.319 233.874 318.004L236.082 296.99Z" fill="#6182EC"/>
<path fill-rule="evenodd" clip-rule="evenodd" d="M237.548 296.567C237.699 295.128 239.052 294.128 240.473 294.407L253.34 296.93L262.145 296.783C263.624 296.758 264.791 298.033 264.636 299.504L262.431 320.486C262.301 321.724 261.267 322.671 260.022 322.692L250.616 322.849L237.317 320.241C236.065 319.995 235.207 318.834 235.341 317.565L237.548 296.567Z" fill="#96EFFA"/>
<path d="M239.873 301.487C239.97 300.561 240.835 299.913 241.752 300.081L247.657 301.161C248.48 301.312 249.048 302.071 248.961 302.902L248.709 305.297C248.612 306.223 247.746 306.871 246.83 306.703L240.924 305.622C240.102 305.472 239.534 304.713 239.621 303.881L239.873 301.487Z" fill="#74CFDB"/>
<path d="M252.357 297.631C252.403 297.192 252.796 296.873 253.236 296.919L253.753 296.974C254.192 297.02 254.511 297.414 254.465 297.853L251.917 322.097C251.87 322.536 251.477 322.855 251.037 322.809L250.52 322.755C250.081 322.708 249.762 322.315 249.808 321.875L252.357 297.631Z" fill="#EAEFFF"/>
<path d="M253.059 297.705C253.106 297.266 253.499 296.947 253.939 296.993L254.456 297.048C254.895 297.094 255.214 297.488 255.168 297.927L252.62 322.171C252.573 322.61 252.18 322.929 251.74 322.883L251.223 322.828C250.784 322.782 250.465 322.389 250.511 321.949L253.059 297.705Z" fill="#7AD2DD"/>
<path fill-rule="evenodd" clip-rule="evenodd" d="M222.89 306.414C222.89 306.414 227.476 305.498 229.354 304.034C231.23 302.569 236.915 301.534 236.915 301.534L235.096 305.34C235.096 305.34 249.029 304.04 249.358 305.406C249.689 306.772 245.659 308.256 245.659 308.256C245.659 308.256 243.672 311.944 241.748 314.082C239.928 316.105 230.884 315.864 227.714 314.602C224.975 313.511 221.996 314.057 221.996 314.057L222.89 306.414Z" fill="#F8CFCF"/>
<path fill-rule="evenodd" clip-rule="evenodd" d="M186.002 253.239C190.984 242.542 208.042 249.749 203.743 261.209C199.579 272.31 189.489 298.23 189.489 298.23C189.489 298.23 221.462 302.263 223.954 304.144C227.279 306.653 225.224 313.813 222.398 315.088C220.007 316.166 202.245 316.796 184.866 315.435C176.269 314.762 169.911 311.092 169.024 301.559C168.402 294.883 181.202 263.544 186.002 253.239Z" fill="#877BFF"/>
<path fill-rule="evenodd" clip-rule="evenodd" d="M189.501 298.224C189.501 298.224 186.844 303.243 187.604 303.345C188.363 303.448 192.224 298.591 192.224 298.591L189.501 298.224Z" fill="black" fill-opacity="0.159856"/>
<path d="M221.704 303.599C222.689 306.727 221.997 310.395 220.629 312.988" stroke="#5386BF" stroke-linecap="round"/>
<path fill-rule="evenodd" clip-rule="evenodd" d="M86.3636 443.346C94.6295 439.634 104.337 443.361 107.996 451.65L110.859 458.135C102.593 461.847 92.8854 458.12 89.2262 449.831L86.3636 443.346Z" fill="#02D3AF"/>
<path fill-rule="evenodd" clip-rule="evenodd" d="M98.1747 447.302C106.424 453.172 111.773 459.714 114.238 466.926C116.716 474.173 117.731 486.321 117.27 503.347C117.262 503.61 117.469 503.83 117.73 503.837C117.991 503.844 118.209 503.637 118.216 503.373C118.68 486.241 117.657 473.996 115.134 466.614C112.598 459.197 107.122 452.5 98.7206 446.521C98.5069 446.369 98.2115 446.421 98.0608 446.636C97.91 446.852 97.961 447.15 98.1747 447.302Z" fill="#02B596"/>
<path fill-rule="evenodd" clip-rule="evenodd" d="M156.489 439.32C148.354 435.494 138.66 439.022 134.887 447.182L131.673 454.133C139.808 457.959 149.503 454.431 153.275 446.271L156.489 439.32Z" fill="#02D3AF"/>
<path d="M91.4976 423.385C99.3415 421.718 107.052 426.725 108.719 434.569L110.069 440.919C102.225 442.586 94.5146 437.579 92.8473 429.735L91.4976 423.385Z" fill="#02D3AF"/>
<path fill-rule="evenodd" clip-rule="evenodd" d="M97.266 428.452C103.311 432.672 107.401 437.223 109.546 442.099L109.678 442.406L109.81 442.729C112.009 448.185 115.647 462.475 120.707 485.545C120.763 485.802 121.016 485.966 121.271 485.91C121.527 485.854 121.688 485.599 121.631 485.342L121.005 482.496L120.272 479.202C115.701 458.761 112.42 446.281 110.412 441.715C108.189 436.662 103.983 431.981 97.8036 427.667C97.5882 427.517 97.2933 427.571 97.1448 427.787C96.9964 428.004 97.0506 428.301 97.266 428.452Z" fill="#02B596"/>
<path fill-rule="evenodd" clip-rule="evenodd" d="M144.624 418.56C135.979 418.408 128.848 425.294 128.698 433.94L128.565 441.653C137.21 441.805 144.341 434.919 144.49 426.273L144.624 418.56Z" fill="#02D3AF"/>
<path fill-rule="evenodd" clip-rule="evenodd" d="M138.951 421.662C133.39 429.822 129.326 437.699 126.763 445.293C124.203 452.874 121.65 464.581 119.1 480.424C119.058 480.684 119.233 480.93 119.491 480.972C119.75 481.014 119.993 480.837 120.035 480.577L120.348 478.651L120.563 477.353C122.93 463.186 125.296 452.6 127.659 445.601C130.193 438.095 134.217 430.295 139.731 422.203C139.879 421.985 139.825 421.688 139.609 421.539C139.394 421.389 139.099 421.444 138.951 421.662Z" fill="#02B596"/>
<path fill-rule="evenodd" clip-rule="evenodd" d="M126.905 416.316C126.905 416.316 122.395 429.164 120.402 448.089C118.409 467.013 119.572 485.938 119.572 485.938L121.772 486.138C121.772 486.138 120.59 464.05 122.01 448.172C123.429 432.294 128.005 416.417 128.005 416.417L126.905 416.316Z" fill="#02B596"/>
<ellipse cx="129.202" cy="409.952" rx="7.26372" ry="11.1372" transform="rotate(14 129.202 409.952)" fill="#C2FFF4"/>
<ellipse cx="129.347" cy="410.625" rx="5.05298" ry="7.26093" transform="rotate(14 129.347 410.625)" fill="#02D3AF"/>
<path fill-rule="evenodd" clip-rule="evenodd" d="M128.726 417.005L132.784 404.341C133.025 403.588 132.615 402.781 131.869 402.538C131.122 402.294 130.322 402.707 130.08 403.46L126.023 416.124C125.781 416.877 126.191 417.685 126.937 417.928C127.684 418.171 128.485 417.758 128.726 417.005Z" fill="url(#paint7_linear)"/>
<path fill-rule="evenodd" clip-rule="evenodd" d="M104.951 403.586C104.951 403.586 110.779 415.892 114.74 434.505C118.7 453.117 119.522 472.06 119.522 472.06L117.354 472.489C117.354 472.489 116.221 450.399 113.149 434.756C110.078 419.113 103.867 403.801 103.867 403.801L104.951 403.586Z" fill="#02B596"/>
<ellipse rx="7.26372" ry="11.1372" transform="matrix(-0.939693 0.34202 0.34202 0.939693 102.002 397.496)" fill="#C2FFF4"/>
<ellipse rx="5.05298" ry="7.26093" transform="matrix(-0.939693 0.34202 0.34202 0.939693 101.927 398.181)" fill="#02D3AF"/>
<path fill-rule="evenodd" clip-rule="evenodd" d="M103.213 404.462L97.8533 392.291C97.5347 391.568 97.8576 390.722 98.5745 390.402C99.2915 390.082 100.131 390.409 100.45 391.132L105.809 403.303C106.127 404.026 105.805 404.872 105.088 405.192C104.371 405.512 103.531 405.185 103.213 404.462Z" fill="url(#paint8_linear)"/>
<path fill-rule="evenodd" clip-rule="evenodd" d="M152.02 441.348C140.792 445.742 132.963 450.819 128.537 456.599C124.111 462.378 121.186 471.342 119.743 483.49C119.712 483.752 119.898 483.99 120.157 484.021C120.417 484.053 120.653 483.866 120.684 483.604C122.108 471.611 124.982 462.803 129.286 457.183C133.591 451.563 141.281 446.575 152.362 442.239C152.606 442.143 152.727 441.867 152.632 441.621C152.538 441.375 152.263 441.253 152.02 441.348Z" fill="#02B596"/>
<path fill-rule="evenodd" clip-rule="evenodd" d="M121.929 476.595C116.599 457.598 95.5466 463.157 95.5466 463.157C95.5466 463.157 111.308 468.308 119.346 476.595H121.929Z" fill="#02B596"/>
<path fill-rule="evenodd" clip-rule="evenodd" d="M121.875 473.677C127.206 454.68 144.975 457.458 144.975 457.458C144.975 457.458 134.183 466.329 124.458 473.677H121.875Z" fill="#02B596"/>
<path fill-rule="evenodd" clip-rule="evenodd" d="M121.836 477.453C117.07 460.599 128.187 446.092 128.187 446.092C128.187 446.092 127.623 466.052 123.76 476.222L121.836 477.453Z" fill="#02B596"/>
<path fill-rule="evenodd" clip-rule="evenodd" d="M117.173 473.677C115.066 467.587 112.97 459.082 111.399 450.837C119.162 453.959 121.656 466.397 119.162 473.677H117.173Z" fill="#02D3AF"/>
<path fill-rule="evenodd" clip-rule="evenodd" d="M102.022 469.762C101.919 468.584 102.848 467.571 104.03 467.571H134.682C135.865 467.571 136.794 468.584 136.691 469.762L130.784 537.355C130.693 538.396 129.821 539.195 128.775 539.195H109.937C108.892 539.195 108.02 538.396 107.929 537.355L102.022 469.762Z" fill="#7569EC"/>
<mask id="mask1" mask-type="alpha" maskUnits="userSpaceOnUse" x="102" y="467" width="35" height="73">
<path fill-rule="evenodd" clip-rule="evenodd" d="M102.022 469.762C101.919 468.584 102.848 467.571 104.03 467.571H134.682C135.865 467.571 136.794 468.584 136.691 469.762L130.784 537.355C130.693 538.396 129.821 539.195 128.775 539.195H109.937C108.892 539.195 108.02 538.396 107.929 537.355L102.022 469.762Z" fill="white"/>
</mask>
<g mask="url(#mask1)">
<path fill-rule="evenodd" clip-rule="evenodd" d="M97.4094 463.099H110.354C102.332 493.552 126.48 514.488 110.354 544.941H97.4094V463.099Z" fill="#8175FF"/>
</g>
<path fill-rule="evenodd" clip-rule="evenodd" d="M679.746 449.882L668.303 540.29L674.303 540.21L685.746 450.728L679.746 449.882Z" fill="#91D6FF"/>
<path fill-rule="evenodd" clip-rule="evenodd" d="M646.447 449.882L635.004 540.29L641.004 540.21L652.447 450.728L646.447 449.882Z" fill="#91D6FF"/>
<path fill-rule="evenodd" clip-rule="evenodd" d="M719.495 449.882L730.938 540.29L724.938 540.21L713.495 450.728L719.495 449.882Z" fill="#BFE7FF"/>
<path fill-rule="evenodd" clip-rule="evenodd" d="M642.071 464.093C636.855 464.093 632.626 459.864 632.626 454.648C632.626 449.431 636.855 445.203 642.071 445.203H679.834C685.555 445.203 690.337 440.849 690.873 435.153L696.911 370.96C697.446 365.264 702.228 360.91 707.95 360.91H731.65C738.109 360.91 743.2 366.408 742.706 372.848L736.481 453.855C736.037 459.632 731.22 464.093 725.426 464.093H642.071Z" fill="#91D6FF"/>
<path fill-rule="evenodd" clip-rule="evenodd" d="M632.628 454.567C632.68 454.568 632.732 454.569 632.784 454.569H715.914C721.707 454.569 726.524 450.109 726.969 444.332L733.189 363.614C733.257 362.734 733.22 361.872 733.09 361.038C732.538 360.954 731.973 360.91 731.396 360.91H707.808C702.087 360.91 697.306 365.262 696.769 370.957L690.736 434.916C690.198 440.611 685.417 444.963 679.697 444.963H642.047C636.844 444.963 632.626 449.181 632.626 454.384C632.626 454.445 632.627 454.506 632.628 454.567Z" fill="#BFE7FF"/>
<path fill-rule="evenodd" clip-rule="evenodd" d="M644.109 511.415C644.109 511.415 649.355 522.01 645.055 525.349C640.748 528.689 629.371 534.946 629.371 534.946L659.511 533.052L652.812 509.944L644.109 511.415Z" fill="url(#paint9_linear)"/>
<path fill-rule="evenodd" clip-rule="evenodd" d="M656.526 521.003C655.577 521.455 657.137 525.712 653.8 525.413C650.464 525.115 648.369 520.714 645.909 521C643.447 521.285 641.886 525.717 637.201 528.803C632.517 531.89 625.572 535.572 626.038 538.675C626.503 541.779 637.432 542.61 642.969 541.582C648.505 540.556 651.09 538.33 654.682 538.507C658.274 538.685 660.531 538.245 661.658 535.939C662.783 533.632 657.62 520.48 656.526 521.003Z" fill="#EEDFE8"/>
<path fill-rule="evenodd" clip-rule="evenodd" d="M656.259 535.167L655.952 535.15C651.5 534.774 648.446 537.574 644.209 538.363C639.971 539.153 628.795 539.426 627.011 536.775C626.926 536.65 626.847 536.521 626.775 536.391C626.175 537.129 625.893 537.917 626.038 538.836C626.503 541.789 637.433 542.58 642.97 541.603C648.507 540.626 651.092 538.508 654.684 538.676L655.323 538.7C658.546 538.788 660.602 538.294 661.66 536.232C661.918 535.729 661.86 534.649 661.601 533.283C660.099 534.311 658.203 535.226 656.259 535.167Z" fill="#EC7AA5"/>
<path fill-rule="evenodd" clip-rule="evenodd" d="M689.512 418.032C680.387 418.439 629.602 429.672 620.375 431.58C611.148 433.488 603.348 443.814 610.384 455.772C618.286 469.194 638.676 507.314 643.626 515.907C646.076 520.16 658.438 517.775 655.534 510.637C650.121 497.329 647.607 463.898 633.807 451.709C633.807 451.709 680.217 459.786 700.264 450.534C714.834 443.808 711.538 417.047 689.512 418.032Z" fill="#413C75"/>
<path fill-rule="evenodd" clip-rule="evenodd" d="M625.86 361.074C625.86 361.074 625.963 355.65 623.366 351.77C620.769 347.89 620.666 343.768 618.7 343.903C616.735 344.038 618.681 353.618 618.681 353.618C618.681 353.618 616.187 352.665 614.395 351.46C612.604 350.255 607.171 344.314 605.902 345.367C603.749 347.16 607.216 357.279 609.104 359.302C610.999 361.326 620.349 366.98 620.349 366.98L647.883 394.719L652 379.993L625.86 361.074Z" fill="url(#paint10_linear)"/>
<path fill-rule="evenodd" clip-rule="evenodd" d="M680.934 358.625C676.689 368.47 668.917 386.556 665.713 391.951C661.698 398.708 655.366 401.685 647.953 396.672C646.402 395.623 641.948 391.954 641.948 391.954C642.607 385.532 645.006 380.164 649.142 375.849L651.951 378.172C651.951 378.172 659.917 357.752 666.325 345.923C671.874 335.689 687.395 343.659 680.934 358.625Z" fill="#EA5455"/>
<path fill-rule="evenodd" clip-rule="evenodd" d="M651.868 378.183C651.868 378.183 649.729 385.44 649.229 385.019C648.728 384.599 649.611 376.286 649.611 376.286L651.868 378.183Z" fill="black" fill-opacity="0.159856"/>
<path fill-rule="evenodd" clip-rule="evenodd" d="M699.278 320.411V329.123L705.675 323.972C705.675 323.972 707.642 315.626 709.241 309.427C710.244 305.539 712.687 292.384 702.851 293C694.793 278.796 671.327 287.587 671.14 304.94C670.916 325.811 671.099 333.937 671.099 333.937C684.369 334.698 691.837 332.78 699.278 320.411Z" fill="#422851"/>
<path fill-rule="evenodd" clip-rule="evenodd" d="M705.814 336.997C705.814 336.997 699.863 335.6 699.656 325.85C699.45 316.099 699.595 312.77 699.595 312.77L686.487 312.534C686.487 312.534 686.344 323.401 686.342 327.332C686.336 336.889 679.308 337.672 679.308 337.672C679.308 337.672 680.51 345.558 692.387 346.225C701.661 346.748 705.814 336.997 705.814 336.997Z" fill="url(#paint11_linear)"/>
<path fill-rule="evenodd" clip-rule="evenodd" d="M702.65 307.901C708.498 307.675 707.544 316.235 701.47 316.224C701.47 316.224 697.942 328.384 685.692 328.384C675.744 328.384 675.097 314.211 675.007 311.384C674.91 308.369 674.898 298.465 674.898 298.465L702.878 298.452L702.65 307.901Z" fill="url(#paint12_linear)"/>
<path fill-rule="evenodd" clip-rule="evenodd" d="M703.103 307.845C700.68 308.245 700.974 309.849 700.315 309.709C696.969 308.997 683.425 309.936 681.681 302.488C679.511 307.141 678.98 308.285 674.202 309.534V295.899L704.424 293C704.424 293 703.955 307.704 703.103 307.845Z" fill="#422851"/>
<path d="M688.054 320.215C688.054 320.215 685.136 322.685 681.757 320.372" stroke="#F77B7B" stroke-width="1.5" stroke-linecap="round"/>
<path d="M686.128 323.076C685.22 323.494 684.346 323.525 683.566 323.107" stroke="#F49494" stroke-linecap="round"/>
<path d="M702.055 312.505C701.994 311.132 702.413 310.041 703.814 309.822" stroke="#F77B7B" stroke-linecap="round"/>
<path fill-rule="evenodd" clip-rule="evenodd" d="M704.484 336C697.016 340.574 688.383 342.251 680.346 337.284C667.23 363.145 663.961 394.002 667.116 428.106C686.242 435.678 702.316 434.189 716 425.534L704.484 336Z" fill="#FFE4F4"/>
<path fill-rule="evenodd" clip-rule="evenodd" d="M611.416 511.84C611.416 511.84 611.574 524.311 601.298 528.974C591.029 533.635 583.712 533.355 584.643 536.959C585.575 540.563 612.305 540.418 614.801 537.599C616.928 535.201 621.555 512.872 622.829 514.579L611.416 511.84Z" fill="url(#paint13_linear)"/>
<path fill-rule="evenodd" clip-rule="evenodd" d="M618.879 529.452C617.305 528.319 615.98 534.853 611.703 533.036C607.425 531.219 610.799 525.213 608.107 524.105C605.415 522.998 600.216 528.953 593.313 530.401C586.409 531.848 580.803 533.114 579.21 535.801C577.838 538.111 579.21 538.849 579.21 538.849C579.21 538.849 585.856 542.168 589.986 542.899C595.986 543.96 613.326 544.667 615.225 542.732C616.392 541.545 619.667 530.019 618.879 529.452Z" fill="#EEDFE8"/>
<path fill-rule="evenodd" clip-rule="evenodd" d="M578.835 536.073C577.534 538.196 579.588 539.3 579.834 539.422L580.824 539.844C582.705 540.626 586.946 542.302 590.081 542.901C595.829 544 613.629 544.651 615.544 542.762C615.88 542.43 616.295 541.217 616.698 539.641L615.476 539.774C609.599 540.397 596.478 541.524 590.002 539.998C584.255 538.644 581.109 536.417 579.674 535.117C579.325 535.416 579.043 535.734 578.835 536.073Z" fill="#EC7AA5"/>
<path fill-rule="evenodd" clip-rule="evenodd" d="M718.102 414.176C718.102 414.176 731.368 442.192 712.725 451.812C694.697 461.115 640.725 450.112 640.725 450.112C640.725 450.112 641.689 457.877 640.725 464.802C638.206 482.889 626.226 513.023 623.692 516.809C620.187 522.046 609.51 518.097 609.309 513.737C609.108 509.377 617.358 453.693 618.612 443.075C619.86 432.456 623.801 430.913 635.309 428.01C637.953 427.343 669.22 419.573 672.084 419.8C696.696 421.746 718.102 414.176 718.102 414.176Z" fill="#524D87"/>
<path fill-rule="evenodd" clip-rule="evenodd" d="M703.56 448.921C685.711 450.921 638.457 446.798 636.559 448.671C634.747 450.46 635.049 481.575 630.984 499.585L631.603 497.884C635.425 487.267 639.394 474.354 640.725 464.802C641.689 457.877 640.725 450.112 640.725 450.112L642.901 450.533C653.16 452.46 696.86 459.999 712.725 451.812C721.322 447.376 724.83 440.006 723.249 429.703C720.528 441.349 713.965 447.755 703.56 448.921Z" fill="white" fill-opacity="0.056108"/>
<path fill-rule="evenodd" clip-rule="evenodd" d="M704.158 336.021C691.789 376.537 684.372 433.979 723 423.986C702.481 386.206 730.376 369.202 724.053 349.676C721.891 343 704.319 335.497 704.158 336.021Z" fill="#EA5455"/>
<path fill-rule="evenodd" clip-rule="evenodd" d="M718.108 352.846C704.129 354.955 715.652 379.362 711.038 383.039C706.424 386.716 698.392 387.113 697.526 389.359C695.786 393.874 704.199 405.271 722.768 423.551L723 423.986C705.126 391.076 723.988 373.931 724.969 357.151C722.898 353.903 720.611 352.468 718.108 352.846Z" fill="black" fill-opacity="0.159856"/>
<path fill-rule="evenodd" clip-rule="evenodd" d="M681 337C676.28 348.838 674.012 358.127 671.895 375.503C670.129 389.975 671.013 419.84 671.013 419.84L665.18 420.987C665.18 420.987 661.011 374.848 662.404 368.907C664.744 358.938 666.329 353.113 669.418 344C671.12 338.998 681 337 681 337Z" fill="#EA5455"/>
<path fill-rule="evenodd" clip-rule="evenodd" d="M701.56 382.017C701.56 382.017 693.945 374.392 691.307 373.507C688.67 372.622 674.223 371.559 674.321 373.559C674.431 375.701 683.728 375.578 684.587 376.632C685.447 377.685 686.642 385.888 689.892 386.697C693.135 387.506 699.858 389.9 699.858 389.9L729.782 405.362L726.594 389.901L701.56 382.017Z" fill="url(#paint14_linear)"/>
<path fill-rule="evenodd" clip-rule="evenodd" d="M724.481 349.731C733.558 362.542 741.308 382.056 744.283 389.664C747.257 397.272 744.257 408.747 731.176 406.494C729.619 406.226 727.085 405.24 727.085 405.24C722.276 398.647 721.432 392.987 723.227 387.947L724.919 388.661C724.919 388.661 711.918 365.617 708.743 359.439C703.44 349.122 716.486 338.444 724.481 349.731Z" fill="#EA5455"/>
<path fill-rule="evenodd" clip-rule="evenodd" d="M724.919 388.661C724.919 388.661 731.522 391.887 730.692 390.468C729.861 389.049 722.403 384.182 722.403 384.182L724.919 388.661Z" fill="black" fill-opacity="0.159856"/>
<path fill-rule="evenodd" clip-rule="evenodd" d="M586.968 346.044C586.638 344.724 587.442 343.387 588.762 343.058L612.232 337.206C613.552 336.877 614.889 337.68 615.219 339.001L623.741 373.181C624.07 374.501 623.266 375.838 621.946 376.168L598.477 382.019C597.156 382.348 595.819 381.545 595.49 380.225L586.968 346.044Z" fill="url(#paint15_linear)"/>
<path fill-rule="evenodd" clip-rule="evenodd" d="M587.883 346.595C587.554 345.275 588.358 343.938 589.678 343.608L613.147 337.757C614.468 337.428 615.805 338.231 616.134 339.552L624.656 373.732C624.985 375.052 624.182 376.389 622.862 376.718L599.392 382.57C598.072 382.899 596.734 382.096 596.405 380.775L587.883 346.595Z" fill="#518DF8"/>
<path d="M588.884 346.896C588.588 345.708 589.311 344.504 590.499 344.208L612.571 338.705C613.76 338.408 614.963 339.131 615.26 340.32L622.965 371.223C623.261 372.411 622.538 373.615 621.349 373.911L599.277 379.414C598.089 379.71 596.885 378.987 596.589 377.799L588.884 346.896Z" fill="white"/>
<path fill-rule="evenodd" clip-rule="evenodd" d="M384.205 395.871H395.621V540.751H384.205L384.205 395.871Z" fill="#E9E9E9"/>
<path fill-rule="evenodd" clip-rule="evenodd" d="M272.375 400.634L362.564 400.634V427.542H287.403V540.751H272.375V400.634Z" fill="#D3D3D3"/>
<path fill-rule="evenodd" clip-rule="evenodd" d="M271.792 400.634H279.792V540.751H271.792V400.634Z" fill="#DBDBDB"/>
<path fill-rule="evenodd" clip-rule="evenodd" d="M664.43 400.634H680.43V540.751H664.43V400.634Z" fill="#E9E9E9"/>
<path fill-rule="evenodd" clip-rule="evenodd" d="M664.43 395.871H674.43V540.751H664.43L664.43 395.871Z" fill="#DBDBDB"/>
<path fill-rule="evenodd" clip-rule="evenodd" d="M532.007 400.634L671.007 400.634V427.19H550.714V540.751H532.007V400.634Z" fill="#D3D3D3"/>
<path fill-rule="evenodd" clip-rule="evenodd" d="M283.59 395.871L532.479 395.871V436.101H283.59V395.871Z" fill="#DBDBDB"/>
<path fill-rule="evenodd" clip-rule="evenodd" d="M526.771 400.634H538.188V436.101H526.771V400.634Z" fill="#E9E9E9"/>
<path fill-rule="evenodd" clip-rule="evenodd" d="M532.042 400.634H541.042V540.751H532.042V400.634Z" fill="#DBDBDB"/>
<path fill-rule="evenodd" clip-rule="evenodd" d="M533.476 403.015C533.476 399.07 536.674 395.871 540.62 395.871L685.745 395.871C689.69 395.871 692.889 399.07 692.889 403.015C692.889 406.96 689.69 410.158 685.745 410.158H540.62C536.674 410.158 533.476 406.96 533.476 403.015Z" fill="#E9E9E9"/>
<path fill-rule="evenodd" clip-rule="evenodd" d="M280.736 398.729H529.625V413.016H280.736V398.729Z" fill="#E9E9E9"/>
<path fill-rule="evenodd" clip-rule="evenodd" d="M259.805 403.015C259.805 399.07 263.003 395.871 266.948 395.871H543.413C547.358 395.871 550.556 399.07 550.556 403.015C550.556 406.96 547.358 410.158 543.413 410.158H266.948C263.003 410.158 259.805 406.96 259.805 403.015Z" fill="#DBDBDB"/>
<path fill-rule="evenodd" clip-rule="evenodd" d="M304.388 505.181L296.49 530.824L313.058 531.425C313.058 531.425 311.187 522.653 313.858 514.43C316 507.829 317.748 504.535 317.748 504.535L304.388 505.181Z" fill="#92691F"/>
<path fill-rule="evenodd" clip-rule="evenodd" d="M312.623 524.378C312.623 524.378 318.947 530.238 325.027 532.409C331.108 534.58 333.436 534.604 333.87 535.421L333.948 535.577C335.199 538.159 334.441 541.589 320.58 541.779C317.21 541.825 313.708 539.868 304.409 537.797L303.738 541.417C298.534 541.348 295.497 540.528 294.628 538.956C293.319 536.605 295.545 525.011 297.08 524.791C298.616 524.571 298.919 529.287 303.042 529.39C307.171 529.493 312.623 524.378 312.623 524.378Z" fill="#391B0B"/>
<path fill-rule="evenodd" clip-rule="evenodd" d="M324.882 532.356C324.694 532.519 324.467 532.691 324.201 532.854C323.277 533.421 321.884 533.872 320.012 533.445C319.06 533.227 318 532.619 316.958 531.852C315.911 531.082 314.862 530.137 313.929 529.221C312.996 528.305 312.176 527.416 311.59 526.755C311.297 526.425 311.062 526.152 310.901 525.961C310.875 525.931 310.851 525.903 310.83 525.877C310.967 525.771 311.099 525.668 311.224 525.568C311.242 525.59 311.261 525.613 311.282 525.638C311.442 525.826 311.674 526.096 311.964 526.424C312.545 527.078 313.357 527.959 314.279 528.865C315.203 529.771 316.234 530.699 317.254 531.449C318.28 532.204 319.273 532.763 320.123 532.957C321.853 533.352 323.113 532.935 323.94 532.428C324.088 532.337 324.223 532.243 324.344 532.15C324.523 532.222 324.702 532.291 324.882 532.356Z" fill="#81411E"/>
<path fill-rule="evenodd" clip-rule="evenodd" d="M266.631 424.913C266.631 424.913 332.424 430.174 341.489 430.455C350.554 430.735 357.48 443.674 350.46 455.617C342.576 469.024 321.155 507.621 316.967 516.545C313.425 524.09 297.327 520.998 300.224 509.473C303.682 495.679 310.128 464.733 323.897 452.558C323.897 452.558 290.41 464.699 271.548 452.924C260.787 446.207 266.631 424.913 266.631 424.913Z" fill="#7A3636"/>
<path fill-rule="evenodd" clip-rule="evenodd" d="M350.46 455.617L349.435 457.376C345.444 464.272 339.001 475.923 332.85 487.27L333.174 486.231C337.931 471.092 345.322 453.258 348.482 447.817C349.59 445.91 351.098 443.966 353.007 441.985C353.816 446.14 353.201 450.954 350.46 455.617Z" fill="white" fill-opacity="0.192499"/>
<path fill-rule="evenodd" clip-rule="evenodd" d="M375.987 505.48C375.987 505.48 380.385 525.038 386.11 527.131C388.314 527.937 369.218 530.238 369.218 530.238L364.424 511.474L375.987 505.48Z" fill="#92691F"/>
<path fill-rule="evenodd" clip-rule="evenodd" d="M366.46 523.631L366.141 540.142L372.723 540.192L372.791 536.48C372.791 536.48 377.92 539.556 381.394 540.638C386.067 542.097 404.525 541.333 406.61 539.11C408.697 536.877 408.741 533.324 404.459 532.887C400.178 532.451 393.098 531.151 390.05 528.818C386.364 526.007 384.961 521.547 383.889 521.543C382.25 521.537 382.123 526.784 373.804 526.858C370.637 526.886 366.46 523.631 366.46 523.631Z" fill="#391B0B"/>
<path fill-rule="evenodd" clip-rule="evenodd" d="M382.186 523.015C382.186 523.015 386.431 529.639 388.955 530.598C391.479 531.547 393.512 530.482 393.512 530.482C393.512 530.482 389.161 528.748 387.48 525.722C383.673 518.867 382.911 522.354 382.186 523.015Z" fill="#81411E"/>
<path fill-rule="evenodd" clip-rule="evenodd" d="M272.075 430.228C272.075 430.228 271.983 451.248 286.107 456.532C300.23 461.815 346.22 459.827 346.22 459.827C346.22 459.827 360.814 513.525 364.312 518.755C367.809 523.986 384.39 524.527 383.494 512.481C382.59 500.435 376.119 455.713 374.867 445.107C373.622 434.5 369.69 431.96 358.208 430.06C354.172 429.392 355.885 428.322 329.941 427.107C324.369 426.846 315.02 428.932 306.429 429.877C297.837 430.822 272.075 430.228 272.075 430.228Z" fill="#7A3636"/>
<path fill-rule="evenodd" clip-rule="evenodd" d="M317.978 430.681L317.978 428.24L319.128 428.068C323.31 427.447 327.112 426.975 329.941 427.107L332.924 427.252C355.757 428.407 354.334 429.419 358.208 430.06L358.954 430.186C369.617 432.033 373.475 434.614 374.781 444.419L375.147 447.37C376.875 460.962 382.645 501.158 383.494 512.481C383.561 513.387 383.53 514.222 383.412 514.99L380.051 498.062C375.097 472.966 372.321 458.096 371.723 453.452L371.598 452.487C370.479 444.244 367.551 434.016 358.102 434.683L357.286 434.752C350.633 435.258 338.017 433.982 319.437 430.923L317.978 430.681Z" fill="white" fill-opacity="0.192499"/>
<ellipse cx="385.32" cy="446.912" rx="3.77561" ry="6.61391" transform="rotate(13 385.32 446.912)" fill="white" fill-opacity="0.192499"/>
<path fill-rule="evenodd" clip-rule="evenodd" d="M282.263 402.315C282.263 402.315 297.654 405.878 297.498 407.277C297.345 408.682 290.569 408.898 290.569 408.898C290.569 408.898 303.095 416.987 302.098 418.565C301.101 420.143 292.934 421.921 289.545 420.648C286.154 419.375 277.367 410.113 277.367 410.113L282.263 402.315Z" fill="url(#paint16_linear)"/>
<path fill-rule="evenodd" clip-rule="evenodd" d="M282.403 356.716C277.247 363.079 259.67 382.513 259.67 382.513C259.67 382.513 277.247 395.033 281.674 397.681C288.932 402.021 281.551 413.537 276.228 412.258C269.014 410.52 250.807 397.959 242.251 392.875C233.696 387.792 236.969 379.585 243.299 372.095C248.161 366.343 258.732 354.557 266.169 344.211C273.569 333.917 292.406 344.37 282.403 356.716Z" fill="#EA5455"/>
<path fill-rule="evenodd" clip-rule="evenodd" d="M259.669 382.513C259.669 382.513 254.721 387.281 255.235 387.65C255.75 388.019 261.713 383.979 261.713 383.979L259.669 382.513Z" fill="black" fill-opacity="0.159856"/>
<path fill-rule="evenodd" clip-rule="evenodd" d="M313.095 310.007C317.418 310.481 317.111 318.089 311.849 318.486C310.773 325.821 306.937 329.315 302.261 329.719L302.52 340.813L281.835 340.801C281.835 340.801 287.66 332.964 287.37 322.235C287.079 311.506 287.564 301.427 287.564 301.427L314.357 301.908L313.095 310.007Z" fill="url(#paint17_linear)"/>
<path fill-rule="evenodd" clip-rule="evenodd" d="M304.633 289.313C320.569 293.336 313.995 310.328 313.995 310.328C309.18 309.671 304.546 315.514 302.788 321.244C297.707 326.467 291.127 326.458 286.75 323.416C286.75 323.416 280.729 304.793 282.699 298.592C284.669 292.391 290.107 285.647 304.633 289.313Z" fill="#2C272E"/>
<path fill-rule="evenodd" clip-rule="evenodd" d="M266.958 343.288C265.527 345.724 264.502 355.536 266.958 394.408C268.229 414.537 262.82 434.376 264.218 443.109C265.616 451.843 275.224 452.886 275.224 452.886L280.827 434.657L283.463 452.886C283.463 452.886 323.196 449.171 326.678 440.125C330.168 431.06 325.786 409.75 324.744 389.683C323.697 369.537 324.482 348.858 322.557 345.724C318.714 339.468 308.822 336.546 302.682 335.61C294.891 334.422 284.834 334.377 278.855 336.273C272.875 338.168 268.388 340.852 266.958 343.288Z" fill="#EA5455"/>
<path fill-rule="evenodd" clip-rule="evenodd" d="M307.387 357.131C310.522 380.265 314.715 396.498 319.966 405.83C322.137 409.688 324.342 411.279 326.582 410.602L326.05 405.475C325.519 400.287 325.017 394.942 324.744 389.683C324.553 386.016 324.423 382.331 324.327 378.737L307.387 357.131Z" fill="black" fill-opacity="0.159856"/>
<path fill-rule="evenodd" clip-rule="evenodd" d="M278.854 336.273C278.492 336.388 278.141 336.507 277.802 336.631C286.387 340.374 300.562 339.874 308.268 336.825C306.26 336.258 304.335 335.862 302.682 335.61C294.891 334.422 284.834 334.377 278.854 336.273Z" fill="#E5AA41"/>
<path fill-rule="evenodd" clip-rule="evenodd" d="M384.155 377.168C384.155 377.168 396.939 368.633 399.199 366.919C401.451 365.212 404.277 352.268 402.525 350.452C401.679 349.573 395.283 355.486 394.142 356.278C393.009 357.062 387.209 360.556 387.209 360.556C387.209 360.556 388.85 350.648 387.437 349.849C386.392 349.268 384.302 351.818 384.022 354.513C383.743 357.208 380.835 360.723 380.46 364.813C380.291 366.599 378.532 370.013 378.532 370.013L384.155 377.168Z" fill="url(#paint18_linear)"/>
<path fill-rule="evenodd" clip-rule="evenodd" d="M308.015 360.801C312.913 370.981 321.234 385.863 325.804 394.589C331.211 404.915 337.655 409.29 350.653 401.628C361.537 395.211 377.234 384.89 385.344 379.281C392.891 374.061 383.97 361.175 376.84 365.529C367.381 371.297 343.194 382.728 343.194 382.728C343.194 382.728 330.747 359.991 325.579 349.075C319.004 335.201 298.534 341.101 308.015 360.801Z" fill="#EA5455"/>
<path fill-rule="evenodd" clip-rule="evenodd" d="M343.194 382.728C343.194 382.728 345.47 390.744 346.007 390.427C346.544 390.111 345.63 381.579 345.63 381.579L343.194 382.728Z" fill="black" fill-opacity="0.159856"/>
<path fill-rule="evenodd" clip-rule="evenodd" d="M292.768 461.221L281.325 542.179L287.324 542.1L298.767 462.067L292.768 461.221Z" fill="#BFE7FF"/>
<path fill-rule="evenodd" clip-rule="evenodd" d="M330.93 461.221L342.373 542.179L336.374 542.1L324.931 462.067L330.93 461.221Z" fill="#91D6FF"/>
<path fill-rule="evenodd" clip-rule="evenodd" d="M257.883 461.221L246.44 542.179L252.439 542.1L263.882 462.067L257.883 461.221Z" fill="#BFE7FF"/>
<path fill-rule="evenodd" clip-rule="evenodd" d="M335.306 465.983C340.523 465.983 344.751 461.754 344.751 456.538C344.751 451.321 340.523 447.092 335.306 447.092H297.544C291.822 447.092 287.04 442.739 286.505 437.043L280.467 372.85C279.931 367.153 275.149 362.8 269.427 362.8H245.727C239.269 362.8 234.177 368.298 234.672 374.737L240.896 455.744C241.34 461.522 246.157 465.983 251.952 465.983H335.306Z" fill="#BFE7FF"/>
<path fill-rule="evenodd" clip-rule="evenodd" d="M344.75 456.457C344.698 456.458 344.646 456.458 344.594 456.458H292.611C286.817 456.458 282 451.998 281.555 446.222L275.248 364.363C278.192 366.121 280.266 369.21 280.609 372.847L286.642 436.806C287.179 442.501 291.961 446.853 297.681 446.853H335.331C340.534 446.853 344.751 451.071 344.751 456.274C344.751 456.335 344.751 456.396 344.75 456.457Z" fill="#91D6FF"/>
<path fill-rule="evenodd" clip-rule="evenodd" d="M558.981 394.543C558.981 394.13 558.647 393.796 558.235 393.796H474.099C473.686 393.796 473.352 394.13 473.352 394.543V395.64C473.352 396.052 473.686 396.386 474.099 396.386H558.235C558.647 396.386 558.981 396.052 558.981 395.64V394.543Z" fill="url(#paint19_linear)"/>
<path fill-rule="evenodd" clip-rule="evenodd" d="M558.99 394.543C558.99 394.13 558.655 393.796 558.243 393.796H525.916C525.504 393.796 525.17 394.13 525.17 394.543V395.64C525.17 396.052 525.504 396.386 525.916 396.386H558.243C558.655 396.386 558.99 396.052 558.99 395.64V394.543Z" fill="#518DF8"/>
<path fill-rule="evenodd" clip-rule="evenodd" d="M565.093 358.353C565.369 356.201 563.692 354.296 561.522 354.296H505.711C503.899 354.296 502.37 355.642 502.14 357.439L497.989 389.852C497.713 392.004 499.39 393.909 501.56 393.909H557.371C559.183 393.909 560.712 392.563 560.942 390.766L565.093 358.353Z" fill="#518DF8"/>
<path fill-rule="evenodd" clip-rule="evenodd" d="M563.394 358.353C563.67 356.201 561.993 354.296 559.823 354.296H505.192C503.38 354.296 501.851 355.642 501.621 357.439L497.47 389.852C497.194 392.004 498.871 393.909 501.041 393.909H555.672C557.484 393.909 559.013 392.563 559.243 390.766L563.394 358.353Z" fill="url(#paint20_linear)"/>
<path d="M561.445 359.821C561.693 357.884 560.184 356.17 558.231 356.17H506.473C504.842 356.17 503.466 357.381 503.259 358.999L499.519 388.236C499.271 390.173 500.78 391.887 502.733 391.887H554.491C556.122 391.887 557.498 390.675 557.705 389.058L561.445 359.821Z" fill="white"/>
<path fill-rule="evenodd" clip-rule="evenodd" d="M424.645 404.22C424.645 404.22 438.245 407.393 438.108 408.638C437.973 409.89 431.984 410.082 431.984 410.082C431.984 410.082 443.054 417.285 442.173 418.69C441.292 420.095 434.075 421.678 431.079 420.545C428.083 419.412 420.318 411.164 420.318 411.164L398.531 399.463L405.813 389.858L424.645 404.22Z" fill="url(#paint21_linear)"/>
<path fill-rule="evenodd" clip-rule="evenodd" d="M424.768 363.617C420.212 369.282 404.678 386.588 404.678 386.588L407.745 388.889L397.772 400.985C397.772 400.985 391.404 397.083 389.286 395.815C381.725 391.288 384.618 383.98 390.212 377.311C394.508 372.189 403.85 361.695 410.422 352.482C416.961 343.316 433.608 352.624 424.768 363.617Z" fill="#FFB66F"/>
<path fill-rule="evenodd" clip-rule="evenodd" d="M404.678 386.588C404.678 386.588 400.305 390.833 400.76 391.162C401.214 391.491 406.484 387.893 406.484 387.893L404.678 386.588Z" fill="black" fill-opacity="0.159856"/>
<path fill-rule="evenodd" clip-rule="evenodd" d="M407.127 387.623L394.129 400.491L400.628 404.744L409.556 389.459L407.127 387.623Z" fill="#FFEDC2"/>
<path fill-rule="evenodd" clip-rule="evenodd" d="M448.635 503.233L441.604 525.882L453.422 526.413C453.422 526.413 451.756 518.665 454.134 511.403C456.041 505.572 457.598 502.663 457.598 502.663L448.635 503.233Z" fill="url(#paint22_linear)"/>
<path fill-rule="evenodd" clip-rule="evenodd" d="M453.518 519.78C453.518 519.78 453.271 525.546 455.285 527.369C457.298 529.19 467.978 535.917 468.873 537.272C469.768 538.628 468.455 540.283 468.455 540.283C468.455 540.283 457.551 541.993 452.407 539.354C448.694 537.448 446.041 535.891 446.041 535.891L444.901 538.82L438.947 537.965C438.947 537.965 437.112 533.316 437.9 531.004C438.689 528.692 442.758 517.889 442.758 517.889C442.758 517.889 453.518 519.78 453.518 519.78Z" fill="#391B0B"/>
<path fill-rule="evenodd" clip-rule="evenodd" d="M414.248 426.031C423.137 426.898 466.921 437.326 475.936 439.178C484.951 441.03 492.573 451.051 485.698 462.654C477.977 475.679 456.15 516.158 456.15 516.158C456.015 516.191 455.883 516.249 455.747 516.249C451.307 516.249 447.349 515.641 443.538 512.985C443.538 512.985 449.329 470.54 462.812 458.712C462.812 458.712 427.994 471.231 410.582 457.571C400.31 449.513 404.452 425.075 414.248 426.031Z" fill="#33373E"/>
<path fill-rule="evenodd" clip-rule="evenodd" d="M482.574 442.255L480.183 472.278C480.38 471.928 480.575 471.582 480.767 471.24L483.045 442.636C482.891 442.506 482.733 442.379 482.574 442.255Z" fill="white" fill-opacity="0.192499"/>
<path fill-rule="evenodd" clip-rule="evenodd" d="M514.095 501.444C514.095 501.444 517.972 518.714 523.018 520.562C524.961 521.273 511.032 523.305 511.032 523.305L506.807 506.737L514.095 501.444Z" fill="url(#paint23_linear)"/>
<path fill-rule="evenodd" clip-rule="evenodd" d="M509.257 518.544L512.935 540.165L519.311 539.157L518.524 533.811C518.524 533.811 521.32 538.468 524.439 538.267C527.567 538.065 543.209 535.707 543.209 535.707C543.209 535.707 543.561 530.529 536.366 529.346C530.381 528.363 520.176 516.809 520.176 516.809L509.257 518.544Z" fill="#391B0B"/>
<path fill-rule="evenodd" clip-rule="evenodd" d="M421.705 423.171C421.705 423.171 408.874 450.35 426.906 459.682C444.346 468.708 490.749 457.063 490.749 457.063C490.749 457.063 489.816 464.596 490.749 471.314C493.186 488.861 505.168 510.449 506.258 514.007C506.807 515.798 520.171 513.151 520.171 511.026C520.171 508.901 513.352 460.537 512.139 450.236C510.931 439.934 507.12 438.438 495.987 435.622C493.43 434.975 460.284 427.436 457.513 427.656C433.707 429.544 421.705 423.171 421.705 423.171Z" fill="#42474F"/>
<path fill-rule="evenodd" clip-rule="evenodd" d="M457.513 427.656C460.284 427.436 493.43 434.975 495.987 435.622L497.815 436.091C507.31 438.575 510.83 440.428 512.052 449.547L512.381 452.165C513.384 459.804 516.092 477.769 518.234 492.725C515.816 487.228 513.816 481.129 512.231 474.427C508.54 458.808 509.33 445.982 508.338 443.736C507.347 441.49 458.859 434.32 450.527 432.84C446.901 432.196 444.855 430.599 444.39 428.048C448.417 428.161 452.791 428.031 457.513 427.656Z" fill="white" fill-opacity="0.192499"/>
<path fill-rule="evenodd" clip-rule="evenodd" d="M451.203 318.877C455.055 319.299 454.782 326.08 450.093 326.434C449.134 332.97 445.716 336.084 441.549 336.444L441.78 346.331L423.348 346.32C423.348 346.32 428.539 339.336 428.28 329.775C428.021 320.213 428.454 311.231 428.454 311.231L452.328 311.66L451.203 318.877Z" fill="url(#paint24_linear)"/>
<path fill-rule="evenodd" clip-rule="evenodd" d="M452.041 319.385C447.555 317.609 444.241 325.257 440.808 330.573C437.375 335.889 428.481 334.985 427.255 330.573C422.615 320.908 418.615 307.769 424.031 306.691C424.793 292.723 461.308 296.021 452.041 319.385Z" fill="#9E5229"/>
<path fill-rule="evenodd" clip-rule="evenodd" d="M427.017 301.156H434.93H435.042L435.116 301.239C442.145 309.095 443.719 320.664 440.435 331.099C440.181 331.427 439.904 331.727 439.609 332.001C443.288 321.471 441.878 309.618 434.818 301.656H426.429C426.616 301.483 426.813 301.316 427.017 301.156Z" fill="black" fill-opacity="0.199355"/>
<ellipse rx="4.4008" ry="4.40615" transform="matrix(-1 0 0 1 431.868 301.406)" fill="#FB9934"/>
<path fill-rule="evenodd" clip-rule="evenodd" d="M455.709 348.001C459.79 353.987 466.591 374.303 466.977 378.873C467.411 384.145 461.751 392.544 461.658 400.176C461.575 407.809 465.88 426.915 464.586 429.062C463.303 431.209 420.69 443.621 418.29 442.601C415.889 441.581 407.602 430.581 409.495 426.11C411.399 421.64 419.265 411.499 418.365 405.408C417.475 399.318 412.308 376.836 409.742 369.184C407.186 361.532 408.038 353.499 412.808 350.206C415.168 348.577 421.467 343.948 432.682 343.97C443.898 343.991 455.393 347.537 455.709 348.001Z" fill="#FF9F43"/>
<path fill-rule="evenodd" clip-rule="evenodd" d="M464.858 373.966L445.303 359.915L445.308 362.483C445.381 378.33 446.378 386.724 462.976 412.695L462.592 410.048C462.051 406.206 461.632 402.608 461.658 400.176C461.717 395.361 463.991 390.241 465.553 385.793L464.858 373.966Z" fill="black" fill-opacity="0.159856"/>
<path fill-rule="evenodd" clip-rule="evenodd" d="M443.045 343.532C443.045 343.532 443.517 346.106 441.451 346.106C439.384 346.106 425.524 346.562 423.647 345.748C421.771 344.934 422.334 343.532 422.334 343.532H443.045Z" fill="#FFF6E1"/>
<path fill-rule="evenodd" clip-rule="evenodd" d="M512.125 378.861C512.125 378.861 523.411 371.328 525.406 369.815C527.394 368.309 529.889 356.885 528.343 355.283C527.595 354.507 521.949 359.725 520.942 360.424C519.941 361.116 514.821 364.2 514.821 364.2C514.821 364.2 516.27 355.456 515.023 354.751C514.1 354.238 512.255 356.488 512.008 358.866C511.761 361.244 509.194 364.347 508.863 367.956C508.713 369.533 508.129 371.577 508.129 371.577L476.814 385.025L480.09 399.648L512.125 378.861Z" fill="url(#paint25_linear)"/>
<path fill-rule="evenodd" clip-rule="evenodd" d="M444.907 364.416C449.232 373.4 456.577 386.534 460.612 394.235C465.385 403.349 471.074 407.21 482.549 400.448C483.891 399.656 486.796 397.892 486.796 397.892L479.693 382.12L475.964 383.768C475.964 383.768 464.976 363.701 460.413 354.067C454.609 341.822 436.537 347.03 444.907 364.416Z" fill="#FFB66F"/>
<path fill-rule="evenodd" clip-rule="evenodd" d="M475.964 383.768C475.964 383.768 477.973 390.842 478.447 390.563C478.922 390.283 478.114 382.753 478.114 382.753L475.964 383.768Z" fill="black" fill-opacity="0.159856"/>
<path fill-rule="evenodd" clip-rule="evenodd" d="M479.592 381.423L484.54 401.058L491.901 397.077L482.241 379.894L479.592 381.423Z" fill="#FFEDC2"/>
<path fill-rule="evenodd" clip-rule="evenodd" d="M432.34 298.15C432.34 298.15 428.191 292.84 423.401 294.233C418.61 295.626 414.277 304.165 416.335 312.191C418.382 320.219 416.693 324.797 414.21 330.207C407.539 344.76 430.636 354 430.636 354C430.636 354 428.834 343.217 432.34 336.705C435.95 329.999 438 321.399 438 316.137C438 306.986 432.34 298.15 432.34 298.15Z" fill="#9E5229"/>
<path fill-rule="evenodd" clip-rule="evenodd" d="M431.658 461.221L443.101 542.179L437.101 542.1L425.658 462.067L431.658 461.221Z" fill="#91D6FF"/>
<path fill-rule="evenodd" clip-rule="evenodd" d="M464.957 461.221L476.4 542.179L470.401 542.1L458.958 462.067L464.957 461.221Z" fill="#91D6FF"/>
<path fill-rule="evenodd" clip-rule="evenodd" d="M391.91 461.221L380.467 542.179L386.466 542.1L397.909 462.067L391.91 461.221Z" fill="#BFE7FF"/>
<path fill-rule="evenodd" clip-rule="evenodd" d="M469.333 465.983C474.55 465.983 478.778 461.754 478.778 456.538C478.778 451.321 474.55 447.092 469.333 447.092H431.571C425.849 447.092 421.067 442.739 420.531 437.043L414.494 372.85C413.958 367.153 409.176 362.8 403.454 362.8H379.754C373.296 362.8 368.204 368.298 368.699 374.737L374.923 455.744C375.367 461.522 380.184 465.983 385.979 465.983H469.333Z" fill="#BFE7FF"/>
<path fill-rule="evenodd" clip-rule="evenodd" d="M478.777 456.457C478.725 456.458 478.673 456.458 478.62 456.458H426.637C420.844 456.458 416.027 451.998 415.582 446.222L409.275 364.363C412.219 366.121 414.293 369.21 414.636 372.847L420.669 436.806C421.206 442.501 425.987 446.853 431.708 446.853H469.358C474.561 446.853 478.778 451.071 478.778 456.274C478.778 456.335 478.778 456.396 478.777 456.457Z" fill="#91D6FF"/>
<defs>
<filter id="filter0_dd" x="70.8557" y="83.0082" width="191.801" height="107.428" filterUnits="userSpaceOnUse" color-interpolation-filters="sRGB">
<feFlood flood-opacity="0" result="BackgroundImageFix"/>
<feColorMatrix in="SourceAlpha" type="matrix" values="0 0 0 0 0 0 0 0 0 0 0 0 0 0 0 0 0 0 127 0"/>
<feOffset dx="8" dy="9"/>
<feGaussianBlur stdDeviation="14"/>
<feColorMatrix type="matrix" values="0 0 0 0 0.0755213 0 0 0 0 0.582569 0 0 0 0 0.878793 0 0 0 0.229458 0"/>
<feBlend mode="normal" in2="BackgroundImageFix" result="effect1_dropShadow"/>
<feColorMatrix in="SourceAlpha" type="matrix" values="0 0 0 0 0 0 0 0 0 0 0 0 0 0 0 0 0 0 127 0"/>
<feOffset dy="2"/>
<feGaussianBlur stdDeviation="7.5"/>
<feColorMatrix type="matrix" values="0 0 0 0 0.503982 0 0 0 0 0.700178 0 0 0 0 1 0 0 0 0.233829 0"/>
<feBlend mode="normal" in2="effect1_dropShadow" result="effect2_dropShadow"/>
<feBlend mode="normal" in="SourceGraphic" in2="effect2_dropShadow" result="shape"/>
</filter>
<filter id="filter1_dd" x="70.8557" y="141.592" width="224.949" height="198.68" filterUnits="userSpaceOnUse" color-interpolation-filters="sRGB">
<feFlood flood-opacity="0" result="BackgroundImageFix"/>
<feColorMatrix in="SourceAlpha" type="matrix" values="0 0 0 0 0 0 0 0 0 0 0 0 0 0 0 0 0 0 127 0"/>
<feOffset dx="8" dy="9"/>
<feGaussianBlur stdDeviation="14"/>
<feColorMatrix type="matrix" values="0 0 0 0 0.0755213 0 0 0 0 0.582569 0 0 0 0 0.878793 0 0 0 0.229458 0"/>
<feBlend mode="normal" in2="BackgroundImageFix" result="effect1_dropShadow"/>
<feColorMatrix in="SourceAlpha" type="matrix" values="0 0 0 0 0 0 0 0 0 0 0 0 0 0 0 0 0 0 127 0"/>
<feOffset dy="2"/>
<feGaussianBlur stdDeviation="7.5"/>
<feColorMatrix type="matrix" values="0 0 0 0 0.503982 0 0 0 0 0.700178 0 0 0 0 1 0 0 0 0.233829 0"/>
<feBlend mode="normal" in2="effect1_dropShadow" result="effect2_dropShadow"/>
<feBlend mode="normal" in="SourceGraphic" in2="effect2_dropShadow" result="shape"/>
</filter>
<filter id="filter2_d" x="96.5056" y="202.89" width="161.424" height="97.3127" filterUnits="userSpaceOnUse" color-interpolation-filters="sRGB">
<feFlood flood-opacity="0" result="BackgroundImageFix"/>
<feColorMatrix in="SourceAlpha" type="matrix" values="0 0 0 0 0 0 0 0 0 0 0 0 0 0 0 0 0 0 127 0"/>
<feOffset dy="13"/>
<feGaussianBlur stdDeviation="7.5"/>
<feColorMatrix type="matrix" values="0 0 0 0 0 0 0 0 0 0 0 0 0 0 0 0 0 0 0.144395 0"/>
<feBlend mode="normal" in2="BackgroundImageFix" result="effect1_dropShadow"/>
<feBlend mode="normal" in="SourceGraphic" in2="effect1_dropShadow" result="shape"/>
</filter>
<filter id="filter3_d" x="276.233" y="105.237" width="272.181" height="197.485" filterUnits="userSpaceOnUse" color-interpolation-filters="sRGB">
<feFlood flood-opacity="0" result="BackgroundImageFix"/>
<feColorMatrix in="SourceAlpha" type="matrix" values="0 0 0 0 0 0 0 0 0 0 0 0 0 0 0 0 0 0 127 0"/>
<feOffset dx="6" dy="6"/>
<feGaussianBlur stdDeviation="8"/>
<feColorMatrix type="matrix" values="0 0 0 0 0.70188 0 0 0 0 0.70188 0 0 0 0 0.70188 0 0 0 0.208725 0"/>
<feBlend mode="normal" in2="BackgroundImageFix" result="effect1_dropShadow"/>
<feBlend mode="normal" in="SourceGraphic" in2="effect1_dropShadow" result="shape"/>
</filter>
<linearGradient id="paint0_linear" x1="554.833" y1="311.939" x2="543.753" y2="361.416" gradientUnits="userSpaceOnUse">
<stop stop-color="#FFAFAF"/>
<stop offset="1" stop-color="#F07777"/>
</linearGradient>
<linearGradient id="paint1_linear" x1="553.972" y1="302.545" x2="547.324" y2="335.064" gradientUnits="userSpaceOnUse">
<stop stop-color="#FDC6C6"/>
<stop offset="1" stop-color="#FAB2B2"/>
</linearGradient>
<linearGradient id="paint2_linear" x1="506.962" y1="505.352" x2="505.369" y2="535.133" gradientUnits="userSpaceOnUse">
<stop stop-color="#FDC6C6"/>
<stop offset="1" stop-color="#FAB2B2"/>
</linearGradient>
<linearGradient id="paint3_linear" x1="475.891" y1="543.704" x2="427.817" y2="451.427" gradientUnits="userSpaceOnUse">
<stop stop-color="#28324F"/>
<stop offset="1" stop-color="#222735"/>
</linearGradient>
<linearGradient id="paint4_linear" x1="470.771" y1="340.915" x2="468.619" y2="369.518" gradientUnits="userSpaceOnUse">
<stop stop-color="#FDC6C6"/>
<stop offset="1" stop-color="#FAB2B2"/>
</linearGradient>
<linearGradient id="paint5_linear" x1="549.733" y1="370.46" x2="549.102" y2="388.93" gradientUnits="userSpaceOnUse">
<stop stop-color="#FDC6C6"/>
<stop offset="1" stop-color="#FAB2B2"/>
</linearGradient>
<linearGradient id="paint6_linear" x1="242.336" y1="202.269" x2="232.447" y2="203.194" gradientUnits="userSpaceOnUse">
<stop stop-color="#4D63A0"/>
<stop offset="1" stop-color="#222735"/>
</linearGradient>
<linearGradient id="paint7_linear" x1="127.012" y1="401.433" x2="127.012" y2="417.998" gradientUnits="userSpaceOnUse">
<stop stop-color="#FE62BE"/>
<stop offset="1" stop-color="#FDB3A8"/>
</linearGradient>
<linearGradient id="paint8_linear" x1="103.29" y1="388.795" x2="105.021" y2="405.27" gradientUnits="userSpaceOnUse">
<stop stop-color="#FE62BE"/>
<stop offset="1" stop-color="#FDB3A8"/>
</linearGradient>
<linearGradient id="paint9_linear" x1="664.727" y1="503.858" x2="663.131" y2="533.708" gradientUnits="userSpaceOnUse">
<stop stop-color="#FDC6C6"/>
<stop offset="1" stop-color="#FAB2B2"/>
</linearGradient>
<linearGradient id="paint10_linear" x1="660.095" y1="331.529" x2="655.855" y2="392.079" gradientUnits="userSpaceOnUse">
<stop stop-color="#FDC6C6"/>
<stop offset="1" stop-color="#FAB2B2"/>
</linearGradient>
<linearGradient id="paint11_linear" x1="714.442" y1="307.528" x2="703.218" y2="357.065" gradientUnits="userSpaceOnUse">
<stop stop-color="#FFAFAF"/>
<stop offset="1" stop-color="#F07777"/>
</linearGradient>
<linearGradient id="paint12_linear" x1="713.685" y1="298.112" x2="707.025" y2="330.709" gradientUnits="userSpaceOnUse">
<stop stop-color="#FDC6C6"/>
<stop offset="1" stop-color="#FAB2B2"/>
</linearGradient>
<linearGradient id="paint13_linear" x1="629.45" y1="505.061" x2="627.889" y2="538.334" gradientUnits="userSpaceOnUse">
<stop stop-color="#FDC6C6"/>
<stop offset="1" stop-color="#FAB2B2"/>
</linearGradient>
<linearGradient id="paint14_linear" x1="739.379" y1="364.401" x2="737.871" y2="403.785" gradientUnits="userSpaceOnUse">
<stop stop-color="#FDC6C6"/>
<stop offset="1" stop-color="#FAB2B2"/>
</linearGradient>
<linearGradient id="paint15_linear" x1="586.221" y1="334.275" x2="598.146" y2="382.102" gradientUnits="userSpaceOnUse">
<stop stop-color="#9FF6EC"/>
<stop offset="1" stop-color="#7D9DFF"/>
</linearGradient>
<linearGradient id="paint16_linear" x1="291.949" y1="390.304" x2="303.7" y2="416.424" gradientUnits="userSpaceOnUse">
<stop stop-color="#FDC6C6"/>
<stop offset="1" stop-color="#A47070"/>
</linearGradient>
<linearGradient id="paint17_linear" x1="322.017" y1="291.839" x2="318.541" y2="338.739" gradientUnits="userSpaceOnUse">
<stop stop-color="#FDC6C6"/>
<stop offset="1" stop-color="#A47070"/>
</linearGradient>
<linearGradient id="paint18_linear" x1="407.318" y1="343.095" x2="404.969" y2="375.735" gradientUnits="userSpaceOnUse">
<stop stop-color="#FDC6C6"/>
<stop offset="1" stop-color="#A47070"/>
</linearGradient>
<linearGradient id="paint19_linear" x1="552.737" y1="393.207" x2="552.737" y2="396.386" gradientUnits="userSpaceOnUse">
<stop stop-color="#9FF6EC"/>
<stop offset="1" stop-color="#7D9DFF"/>
</linearGradient>
<linearGradient id="paint20_linear" x1="559.03" y1="345.282" x2="559.03" y2="393.909" gradientUnits="userSpaceOnUse">
<stop stop-color="#9FF6EC"/>
<stop offset="1" stop-color="#7D9DFF"/>
</linearGradient>
<linearGradient id="paint21_linear" x1="422.208" y1="368.874" x2="442.754" y2="415.819" gradientUnits="userSpaceOnUse">
<stop stop-color="#FDC6C6"/>
<stop offset="1" stop-color="#FFCCA1"/>
</linearGradient>
<linearGradient id="paint22_linear" x1="460.365" y1="496.881" x2="457.668" y2="525.059" gradientUnits="userSpaceOnUse">
<stop stop-color="#FDC6C6"/>
<stop offset="1" stop-color="#FAB2B2"/>
</linearGradient>
<linearGradient id="paint23_linear" x1="526.041" y1="496.123" x2="523.808" y2="522.105" gradientUnits="userSpaceOnUse">
<stop stop-color="#FDC6C6"/>
<stop offset="1" stop-color="#FAB2B2"/>
</linearGradient>
<linearGradient id="paint24_linear" x1="459.154" y1="302.686" x2="456.056" y2="344.483" gradientUnits="userSpaceOnUse">
<stop stop-color="#FDC6C6"/>
<stop offset="1" stop-color="#FFCCA1"/>
</linearGradient>
<linearGradient id="paint25_linear" x1="537.825" y1="343.73" x2="534.833" y2="397.407" gradientUnits="userSpaceOnUse">
<stop stop-color="#FDC6C6"/>
<stop offset="1" stop-color="#FFCCA1"/>
</linearGradient>
</defs>
</svg>
