<svg width="637" height="572" viewBox="0 0 637 572" fill="none" xmlns="http://www.w3.org/2000/svg">
<g opacity="0.1" filter="url(#filter0_f)">
<ellipse cx="121.531" cy="275.607" rx="115.531" ry="116.393" fill="#7367F0"/>
</g>
<path opacity="0.05" fill-rule="evenodd" clip-rule="evenodd" d="M380.75 177.185C380.75 116.434 429.999 67.1852 490.75 67.1852C551.501 67.1852 600.75 116.434 600.75 177.185C600.75 237.937 551.501 287.185 490.75 287.185C429.999 287.185 380.75 237.937 380.75 177.185ZM553.75 176.685C553.75 142.167 525.768 114.185 491.25 114.185C456.732 114.185 428.75 142.167 428.75 176.685C428.75 211.203 456.732 239.185 491.25 239.185C525.768 239.185 553.75 211.203 553.75 176.685Z" fill="#00CFE8"/>
<ellipse opacity="0.1" cx="312.383" cy="53.0407" rx="37.9439" ry="38.0407" stroke="#7367F0" stroke-width="30"/>
<path opacity="0.1" d="M491.165 67.1852C551.687 67.1852 600.75 116.434 600.75 177.185C600.75 237.937 551.687 287.185 491.165 287.185C454.704 287.185 421.237 269.153 400.923 239.605C393.53 228.852 396.221 214.12 406.933 206.699C417.538 199.353 432.029 201.927 439.491 212.412L439.715 212.733C451.321 229.614 470.362 239.873 491.165 239.873C525.656 239.873 553.617 211.807 553.617 177.185C553.617 142.91 526.213 115.059 492.198 114.505L491.165 114.497C478.15 114.497 467.598 103.906 467.598 90.8412C467.598 77.7764 478.15 67.1852 491.165 67.1852Z" fill="#00CFE8"/>
<path fill-rule="evenodd" clip-rule="evenodd" d="M168.975 178.137C168.975 164.254 180.229 153 194.112 153H345.202C359.084 153 370.339 164.254 370.339 178.137V545.323C370.339 559.206 359.084 570.46 345.202 570.46H194.112C180.229 570.46 168.975 559.206 168.975 545.323V178.137Z" fill="#8EE9F4"/>
<path fill-rule="evenodd" clip-rule="evenodd" d="M176.237 179.934C176.237 169.705 184.53 161.412 194.759 161.412H221.438C222.187 161.412 222.799 162.007 222.821 162.755C222.976 168.115 227.365 172.379 232.727 172.379H305.926C311.288 172.379 315.677 168.115 315.833 162.755C315.854 162.007 316.467 161.412 317.215 161.412H343.894C354.123 161.412 362.416 169.705 362.416 179.934V541.033C362.416 551.263 354.124 559.555 343.894 559.555H194.759C184.53 559.555 176.237 551.263 176.237 541.033V179.934Z" fill="white"/>
<mask id="mask0" mask-type="alpha" maskUnits="userSpaceOnUse" x="176" y="161" width="187" height="399">
<path fill-rule="evenodd" clip-rule="evenodd" d="M176.237 179.934C176.237 169.705 184.53 161.412 194.759 161.412H221.438C222.187 161.412 222.799 162.007 222.821 162.755C222.976 168.115 227.365 172.379 232.727 172.379H305.926C311.288 172.379 315.677 168.115 315.833 162.755C315.854 162.007 316.467 161.412 317.215 161.412H343.894C354.123 161.412 362.416 169.705 362.416 179.934V541.033C362.416 551.263 354.124 559.555 343.894 559.555H194.759C184.53 559.555 176.237 551.263 176.237 541.033V179.934Z" fill="white"/>
</mask>
<g mask="url(#mask0)">
<ellipse cx="246.823" cy="403.738" rx="15.9688" ry="15.9515" fill="#E97EFF" fill-opacity="0.548951"/>
<path fill-rule="evenodd" clip-rule="evenodd" d="M198.916 235.001C198.916 232.11 201.26 229.767 204.15 229.767H335.904C338.795 229.767 341.138 232.11 341.138 235.001C341.138 237.891 338.795 240.235 335.904 240.235H204.15C201.26 240.235 198.916 237.891 198.916 235.001Z" fill="#E97EFF" fill-opacity="0.548951"/>
</g>
<path d="M280.571 160.308C282.294 160.308 283.69 161.647 283.69 163.299C283.69 164.914 282.355 166.231 280.686 166.288L280.571 166.29H245.304C243.582 166.29 242.185 164.951 242.185 163.299C242.185 161.684 243.52 160.368 245.19 160.31L245.304 160.308H280.571Z" fill="#00CFE8"/>
<path d="M293.211 159.81C294.933 159.81 296.329 161.205 296.329 162.925C296.329 164.608 294.994 165.979 293.325 166.039L293.211 166.041H293.047C291.324 166.041 289.928 164.646 289.928 162.925C289.928 161.243 291.263 159.872 292.933 159.812L293.047 159.81H293.211Z" fill="#00CFE8"/>
<g filter="url(#filter1_dd)">
<path fill-rule="evenodd" clip-rule="evenodd" d="M188.229 359.27C188.229 354.434 192.15 350.514 196.986 350.514H388.174C393.011 350.514 396.931 354.434 396.931 359.27V478.524C396.931 483.361 393.011 487.281 388.174 487.281H196.986C192.15 487.281 188.229 483.361 188.229 478.524V359.27Z" fill="white"/>
</g>
<mask id="mask1" mask-type="alpha" maskUnits="userSpaceOnUse" x="188" y="350" width="209" height="138">
<path fill-rule="evenodd" clip-rule="evenodd" d="M188.229 359.27C188.229 354.434 192.15 350.514 196.986 350.514H388.174C393.011 350.514 396.931 354.434 396.931 359.27V478.524C396.931 483.361 393.011 487.281 388.174 487.281H196.986C192.15 487.281 188.229 483.361 188.229 478.524V359.27Z" fill="white"/>
</mask>
<g mask="url(#mask1)">
<path fill-rule="evenodd" clip-rule="evenodd" d="M183.547 345.15H402.283V385.376H183.547L183.547 345.15Z" fill="#A8EDF6"/>
<path opacity="0.365606" fill-rule="evenodd" clip-rule="evenodd" d="M205.621 374.649C205.621 373.538 206.522 372.638 207.633 372.638H274.515C275.626 372.638 276.526 373.538 276.526 374.649C276.526 375.76 275.626 376.66 274.515 376.66H207.633C206.522 376.66 205.621 375.76 205.621 374.649Z" fill="#6FA3FF"/>
<rect x="205.621" y="361.24" width="37.4593" height="4.02258" rx="2.01129" fill="white"/>
<rect x="212.31" y="452.419" width="37.4593" height="4.69301" rx="2.3465" fill="#EA5455"/>
<path fill-rule="evenodd" clip-rule="evenodd" d="M212.31 468.174C212.31 466.878 213.361 465.827 214.657 465.827H234.045C235.341 465.827 236.391 466.878 236.391 468.174C236.391 469.47 235.341 470.52 234.045 470.52H214.657C213.361 470.52 212.31 469.47 212.31 468.174Z" fill="#F8F9FA"/>
<rect x="271.844" y="452.419" width="37.4593" height="4.69301" rx="2.3465" fill="#FF9F43"/>
<path fill-rule="evenodd" clip-rule="evenodd" d="M271.844 468.174C271.844 466.878 272.894 465.827 274.19 465.827H293.578C294.874 465.827 295.925 466.878 295.925 468.174C295.925 469.47 294.874 470.52 293.578 470.52H274.19C272.894 470.52 271.844 469.47 271.844 468.174Z" fill="#F8F9FA"/>
<rect x="333.384" y="452.419" width="37.4593" height="4.69301" rx="2.3465" fill="#28C76F"/>
<path fill-rule="evenodd" clip-rule="evenodd" d="M333.384 468.174C333.384 466.878 334.435 465.827 335.731 465.827H355.119C356.415 465.827 357.465 466.878 357.465 468.174C357.465 469.47 356.415 470.52 355.119 470.52H335.731C334.435 470.52 333.384 469.47 333.384 468.174Z" fill="#F8F9FA"/>
<path fill-rule="evenodd" clip-rule="evenodd" d="M352.114 438.843C362.735 438.843 371.345 430.213 371.345 419.568C371.345 408.923 362.735 400.293 352.114 400.293C341.493 400.293 332.883 408.923 332.883 419.568C332.883 430.213 341.493 438.843 352.114 438.843ZM352.114 431.133C345.741 431.133 340.575 425.955 340.575 419.568C340.575 413.181 345.741 408.003 352.114 408.003C358.487 408.003 363.653 413.181 363.653 419.568C363.653 425.955 358.487 431.133 352.114 431.133Z" fill="#F2F2F2"/>
<path fill-rule="evenodd" clip-rule="evenodd" d="M371.345 419.568C371.345 408.923 362.735 400.293 352.114 400.293C349.99 400.293 348.268 402.019 348.268 404.148C348.268 406.277 349.99 408.003 352.114 408.003C358.414 408.003 363.535 413.064 363.651 419.351L363.653 419.568C363.653 421.697 365.375 423.423 367.499 423.423C369.623 423.423 371.345 421.697 371.345 419.568Z" fill="#28C76F"/>
<path fill-rule="evenodd" clip-rule="evenodd" d="M291.911 438.843C302.533 438.843 311.143 430.213 311.143 419.568C311.143 408.923 302.533 400.293 291.911 400.293C281.29 400.293 272.68 408.923 272.68 419.568C272.68 430.213 281.29 438.843 291.911 438.843ZM291.911 431.133C285.539 431.133 280.373 425.955 280.373 419.568C280.373 413.181 285.539 408.003 291.911 408.003C298.284 408.003 303.45 413.181 303.45 419.568C303.45 425.955 298.284 431.133 291.911 431.133Z" fill="#F2F2F2"/>
<path d="M291.911 438.843C302.533 438.843 311.143 430.213 311.143 419.568C311.143 408.923 302.533 400.293 291.911 400.293C289.787 400.293 288.065 402.019 288.065 404.148C288.065 406.277 289.787 408.003 291.911 408.003C298.284 408.003 303.45 413.181 303.45 419.568C303.45 425.882 298.401 431.015 292.128 431.131L291.911 431.133C289.787 431.133 288.065 432.859 288.065 434.988C288.065 437.117 289.787 438.843 291.911 438.843Z" fill="#FF9F43"/>
<path fill-rule="evenodd" clip-rule="evenodd" d="M231.709 438.843C242.33 438.843 250.94 430.213 250.94 419.568C250.94 408.923 242.33 400.293 231.709 400.293C221.088 400.293 212.478 408.923 212.478 419.568C212.478 430.213 221.088 438.843 231.709 438.843ZM231.709 431.133C225.336 431.133 220.17 425.955 220.17 419.568C220.17 413.181 225.336 408.003 231.709 408.003C238.082 408.003 243.248 413.181 243.248 419.568C243.248 425.955 238.082 431.133 231.709 431.133Z" fill="#F2F2F2"/>
<path fill-rule="evenodd" clip-rule="evenodd" d="M212.478 419.568C212.478 430.213 221.088 438.843 231.709 438.843C242.33 438.843 250.94 430.213 250.94 419.568C250.94 408.923 242.33 400.293 231.709 400.293C229.585 400.293 227.863 402.019 227.863 404.148C227.863 406.277 229.585 408.003 231.709 408.003C238.082 408.003 243.248 413.181 243.248 419.568C243.248 425.955 238.082 431.133 231.709 431.133C225.336 431.133 220.17 425.955 220.17 419.568C220.17 417.439 218.448 415.713 216.324 415.713C214.2 415.713 212.478 417.439 212.478 419.568Z" fill="#EA5455"/>
</g>
<g filter="url(#filter2_d)">
<path fill-rule="evenodd" clip-rule="evenodd" d="M190.441 206.351H397.491C399.964 206.351 401.968 208.361 401.968 210.841V328.683C401.968 331.163 399.964 333.173 397.491 333.173H190.441C187.968 333.173 185.964 331.163 185.964 328.683V210.841C185.964 208.361 187.968 206.351 190.441 206.351Z" fill="#BFB9FF"/>
</g>
<ellipse cx="343.994" cy="239.358" rx="12.9826" ry="12.9349" fill="#8E83FF"/>
<ellipse cx="361.901" cy="239.358" rx="12.9826" ry="12.9349" fill="#FFBB7A"/>
<path fill-rule="evenodd" clip-rule="evenodd" d="M352.83 230.104L352.949 229.992C355.43 232.348 356.977 235.673 356.977 239.358C356.977 243.042 355.43 246.367 352.949 248.723C350.465 246.368 348.918 243.043 348.918 239.358C348.918 235.731 350.417 232.453 352.83 230.104L352.949 229.992L352.83 230.104Z" fill="white" fill-opacity="0.416193"/>
<path fill-rule="evenodd" clip-rule="evenodd" d="M217.973 247.609H245.057C246.046 247.609 246.848 248.408 246.848 249.393V269.019C246.848 270.004 246.046 270.803 245.057 270.803H217.973C216.984 270.803 216.182 270.004 216.182 269.019V249.393C216.182 248.408 216.984 247.609 217.973 247.609Z" fill="#9F95FF"/>
<path fill-rule="evenodd" clip-rule="evenodd" d="M220.211 283.961H242.595C244.82 283.961 246.624 285.758 246.624 287.975C246.624 290.192 244.82 291.989 242.595 291.989H220.211C217.986 291.989 216.182 290.192 216.182 287.975C216.182 285.758 217.986 283.961 220.211 283.961Z" fill="white" fill-opacity="0.646908"/>
<path fill-rule="evenodd" clip-rule="evenodd" d="M220.211 304.032H276.171C278.396 304.032 280.2 305.829 280.2 308.046C280.2 310.263 278.396 312.06 276.171 312.06H220.211C217.986 312.06 216.182 310.263 216.182 308.046C216.182 305.829 217.986 304.032 220.211 304.032Z" fill="white" fill-opacity="0.646908"/>
<path fill-rule="evenodd" clip-rule="evenodd" d="M347.799 304.032H370.183C372.408 304.032 374.212 305.829 374.212 308.046C374.212 310.263 372.408 312.06 370.183 312.06H347.799C345.574 312.06 343.77 310.263 343.77 308.046C343.77 305.829 345.574 304.032 347.799 304.032Z" fill="white" fill-opacity="0.646908"/>
<path fill-rule="evenodd" clip-rule="evenodd" d="M220.211 225.977H242.595C244.82 225.977 246.624 227.774 246.624 229.991C246.624 232.208 244.82 234.005 242.595 234.005H220.211C217.986 234.005 216.182 232.208 216.182 229.991C216.182 227.774 217.986 225.977 220.211 225.977Z" fill="white" fill-opacity="0.646908"/>
<path fill-rule="evenodd" clip-rule="evenodd" d="M262.293 283.961H284.677C286.902 283.961 288.706 285.758 288.706 287.975C288.706 290.192 286.902 291.989 284.677 291.989H262.293C260.068 291.989 258.264 290.192 258.264 287.975C258.264 285.758 260.068 283.961 262.293 283.961Z" fill="white" fill-opacity="0.646908"/>
<path fill-rule="evenodd" clip-rule="evenodd" d="M305.27 283.961H327.654C329.879 283.961 331.683 285.758 331.683 287.975C331.683 290.192 329.879 291.989 327.654 291.989H305.27C303.045 291.989 301.241 290.192 301.241 287.975C301.241 285.758 303.045 283.961 305.27 283.961Z" fill="white" fill-opacity="0.646908"/>
<path fill-rule="evenodd" clip-rule="evenodd" d="M347.352 283.961H369.735C371.961 283.961 373.765 285.758 373.765 287.975C373.765 290.192 371.961 291.989 369.735 291.989H347.352C345.126 291.989 343.323 290.192 343.323 287.975C343.323 285.758 345.126 283.961 347.352 283.961Z" fill="white" fill-opacity="0.646908"/>
<path fill-rule="evenodd" clip-rule="evenodd" d="M142.482 542C142.482 542 142.328 551.857 148.381 555.358C154.434 558.859 163.812 565.365 163.812 565.365L128.137 566.574L129.154 541.911L142.482 542Z" fill="url(#paint0_linear)"/>
<path fill-rule="evenodd" clip-rule="evenodd" d="M127.761 553.935C130.52 554.22 129.917 558.21 134.922 558.016C138.569 557.874 144.258 551.148 148.937 553.639C156.079 557.442 164.453 562.57 166.506 563.791C168.56 565.012 169.371 569.618 163.303 570.183C157.501 570.724 149.669 570.664 147.707 570.306C145.745 569.949 142.105 567.446 139.177 567.846C136.249 568.246 135.916 569.256 134.279 569.703C132.643 570.15 127.704 570.247 127.192 568.868C126.604 567.286 126.014 553.756 127.761 553.935Z" fill="#482B61"/>
<path fill-rule="evenodd" clip-rule="evenodd" d="M124.996 332.889C124.996 332.889 138.605 439.704 139.743 449.806C140.88 459.908 147.128 531.771 146.273 541.356C145.402 551.118 127.139 551.171 124.69 543.806C121.337 533.724 113.585 483.341 112.303 472.819C111.021 462.298 111.471 450.083 106.319 439.309C102.629 431.596 90.4227 335.628 90.4227 335.628L124.996 332.889Z" fill="#2F2B57"/>
<path opacity="0.59096" fill-rule="evenodd" clip-rule="evenodd" d="M116.997 456.324L117.046 456.804C117.565 462.384 118 480.865 118.352 512.249L117.569 507.562C115.112 492.698 112.931 477.974 112.303 472.819C111.048 462.517 111.453 450.591 106.633 439.984L106.319 439.309C104.695 435.915 101.422 415.426 98.2651 393.547L99.2562 396.201C109.795 424.542 115.709 444.584 116.997 456.324Z" fill="white" fill-opacity="0.192499"/>
<path d="M151.575 555.354L149.868 557.907" stroke="white" stroke-linecap="round"/>
<path d="M154.554 556.352L152.848 558.906" stroke="white" stroke-linecap="round"/>
<path fill-rule="evenodd" clip-rule="evenodd" d="M59.5863 544.261L56.3936 565.817L71.825 565.739L71.3198 543.86L59.5863 544.261Z" fill="url(#paint1_linear)"/>
<path fill-rule="evenodd" clip-rule="evenodd" d="M53.5503 569.305C53.4987 568.047 54.6697 559.89 56.3936 556.66C57.6439 554.318 60.4166 553.769 64.4738 553.752C69.707 553.732 74.0805 554.523 74.0744 556.66C74.0561 563.199 75.7143 568.228 75.8256 568.802C76.1529 570.488 71.4724 571.746 65.0794 571.682C59.8469 571.63 53.6305 571.266 53.5503 569.305Z" fill="#482B61"/>
<path fill-rule="evenodd" clip-rule="evenodd" d="M107.503 336.396C107.503 336.396 100.428 384.069 96.1455 414.233C91.9369 443.873 79.4733 532.285 78.1854 541.54C77.003 550.036 55.4215 550.036 55.6487 539.746C55.8758 529.456 53.8778 465.335 57.8962 455.841C61.9147 446.347 58.4163 435.298 58.5623 426.076C58.709 416.853 64.4882 337.012 64.4882 337.012L107.503 336.396Z" fill="#3A3669"/>
<path opacity="0.461565" fill-rule="evenodd" clip-rule="evenodd" d="M68.7967 398.216L68.4589 399.443C64.362 414.163 62.9481 415.489 64.1092 438.967L64.1211 439.444C64.1616 445.351 61.3524 475.917 55.6937 531.142L55.6681 527.709C55.4697 505.18 54.6397 464.445 57.7941 456.096L57.8962 455.841C61.9146 446.347 58.4163 435.298 58.5623 426.076C58.709 416.853 64.4881 337.012 64.4881 337.012L71.8703 336.906L71.9457 340.563C72.4768 369.125 71.4271 388.343 68.7967 398.216Z" fill="white" fill-opacity="0.192499"/>
<path d="M62.6044 558.534H68.2531" stroke="white" stroke-linecap="round"/>
<path d="M62.6044 561.529H68.2531" stroke="white" stroke-linecap="round"/>
<path fill-rule="evenodd" clip-rule="evenodd" d="M81.0352 240.078C81.0352 240.078 86.9462 238.683 87.1513 228.949C87.3563 219.214 87.2124 215.891 87.2124 215.891L101.226 215.655C101.226 215.655 101.368 226.504 101.37 230.428C101.375 240.968 108.682 240.078 108.682 240.078C108.682 240.078 107.163 248.624 95.3654 249.291C86.1538 249.812 81.0352 240.078 81.0352 240.078Z" fill="url(#paint2_linear)"/>
<path fill-rule="evenodd" clip-rule="evenodd" d="M85.9257 210.971C80.1174 210.745 81.0648 219.291 87.0985 219.279C87.0985 219.279 93.5831 232.383 103.764 232.417C108.667 232.434 110.269 228.044 111.739 224.962C113.209 221.88 114.288 217.27 114.377 214.447C114.474 211.437 114.486 201.55 114.486 201.55L85.6996 201.537L85.9257 210.971Z" fill="url(#paint3_linear)"/>
<path d="M103.356 226.173C104.227 226.654 105.263 226.535 106.065 226.173" stroke="#F49494" stroke-linecap="round"/>
<path d="M86.8316 215.849C86.8913 214.478 86.4752 213.39 85.0841 213.171" stroke="#DE6767" stroke-linecap="round"/>
<path fill-rule="evenodd" clip-rule="evenodd" d="M85.9256 210.971C85.9256 210.971 88.5962 214.069 89.5842 214.154C90.5729 214.239 89.4464 205.769 90.9015 204.226C94.0977 200.835 102.449 206.597 111.232 205.189C114.486 204.668 114.428 210.228 114.428 210.228C122.638 202.703 125.614 196.767 115.804 194.289C115.725 187.92 112.08 186.322 105.032 189.276C104.09 180.673 91.9116 181.971 86.3682 192.916C82.3559 188.992 76.7162 192.16 79.1096 198.064C74.789 198.064 77.0405 209.672 82.1322 213.66C82.7397 211.918 83.8499 210.971 85.9256 210.971Z" fill="#422851"/>
<path d="M101.386 223.414C101.386 223.414 104.152 226.029 107.624 223.899" stroke="#DE6767" stroke-linecap="round"/>
<path fill-rule="evenodd" clip-rule="evenodd" d="M182.553 271.335C182.553 271.335 184.215 262.095 186.414 258.857C188.613 255.619 189.254 250.179 191.329 250.379C193.404 250.579 191.326 259.264 191.326 259.264C191.326 259.264 201.002 252.005 205.392 249.504C209.397 247.223 207.2 259.026 206.574 260.53C205.083 264.112 187.833 277.63 187.833 277.63C187.833 277.63 182.929 272.156 182.553 271.335Z" fill="url(#paint4_linear)"/>
<path fill-rule="evenodd" clip-rule="evenodd" d="M191.326 259.264C191.326 259.264 190.611 262.235 190.968 262.235C191.325 262.235 197.892 254.487 197.892 254.487L191.326 259.264Z" fill="#F28585"/>
<path fill-rule="evenodd" clip-rule="evenodd" d="M126.693 250.655C131.425 260.915 149.121 287.426 149.121 287.426C149.121 287.426 178.119 268.52 181.809 268.481C185.499 268.442 190.509 273.338 190.194 276.717C189.879 280.096 158.129 309.732 147.946 309.483C132.113 309.095 112.258 267.922 110.219 262.419C104.759 247.678 122.078 240.647 126.693 250.655Z" fill="#FF5C5D"/>
<path fill-rule="evenodd" clip-rule="evenodd" d="M149.016 287.407C149.016 287.407 152.364 292.312 152.964 291.99C153.564 291.668 151.648 285.994 151.648 285.994L149.016 287.407Z" fill="black" fill-opacity="0.159856"/>
<path fill-rule="evenodd" clip-rule="evenodd" d="M56.657 252.296C55.1713 259.42 65.3458 295.325 62.5465 312.122C60.3326 325.406 58.2191 343.698 63.9572 347.759C69.7992 351.894 120.087 355.177 127.255 343.698C132.941 334.591 128.286 314.396 127.255 305.183C125.198 286.804 128.304 255.042 124.814 248.546C122.65 244.516 107.892 239.319 107.338 239.48C106.783 239.641 105.48 245.351 96.1487 245.351C86.8171 245.351 82.6964 239.48 82.195 239.319C81.6936 239.158 58.0015 245.852 56.657 252.296Z" fill="#EA5455"/>
<path fill-rule="evenodd" clip-rule="evenodd" d="M82.1715 239.316L82.195 239.319C82.6964 239.48 86.8171 245.351 96.1487 245.351C105.48 245.351 106.783 239.641 107.338 239.48C107.538 239.422 109.588 240.062 112.229 241.093L112.217 241.214C105.547 252.415 87.2042 253.795 77.3994 240.981L77.1774 240.685L78.2714 240.345C80.2741 239.737 81.7071 239.371 82.0968 239.322L82.1715 239.316Z" fill="#FF9B86"/>
<path fill-rule="evenodd" clip-rule="evenodd" d="M56.6886 257.245L57.5108 257.359C66.233 258.606 71.3485 260.58 72.8574 263.28C73.8473 265.052 73.387 271.044 71.4764 281.257L71.2736 282.329C69.5016 291.586 71.5277 301.163 76.8771 308.888L77.1777 309.316C78.9868 311.847 80.6546 315.179 82.181 319.313C85.7217 328.903 78.1903 336.983 82.9602 351.25L81.9864 351.178C73.1198 350.499 65.9489 349.168 63.9572 347.759C58.2191 343.698 60.3326 325.406 62.5466 312.122C64.9284 297.83 57.9174 269.704 56.6886 257.245Z" fill="black" fill-opacity="0.0667614"/>
<path fill-rule="evenodd" clip-rule="evenodd" d="M66.8804 328.606C66.8804 328.606 70.2282 332.556 73.0856 333.047C75.9429 333.538 87.9009 335.877 88.6307 336.224C89.3206 336.551 91.6796 337.793 93.697 339.786C95.4448 341.512 98.4685 345.606 97.4547 346.31C96.371 347.063 93.4451 343.371 91.9771 342.459C90.4377 341.501 88.072 340.654 88.072 340.654C88.072 340.654 93.9238 347.713 93.5517 348.946C93.2801 349.846 88.3041 351.384 87.2401 351.268C86.176 351.153 80.3128 346.86 77.6776 346.36C75.8496 346.014 67.6661 343.798 65.94 342.133C64.2146 340.468 60.3326 337.089 60.3326 337.089L66.8804 328.606Z" fill="url(#paint5_linear)"/>
<path fill-rule="evenodd" clip-rule="evenodd" d="M92.4236 349.765C92.4236 349.765 86.2998 343.594 86.0442 343.7C85.7887 343.805 91.3802 350.194 91.3802 350.194L92.4236 349.765Z" fill="#F28585"/>
<path fill-rule="evenodd" clip-rule="evenodd" d="M89.6941 350.778C89.6941 350.778 85.1068 346.575 84.8069 346.777C84.5071 346.98 88.4811 351.121 88.4811 351.121L89.6941 350.778Z" fill="#F28585"/>
<path fill-rule="evenodd" clip-rule="evenodd" d="M70.209 246.344C79.6645 252.998 73.3474 265.092 65.5027 276.186C58.1747 286.549 47.0679 302.158 47.0679 302.158C47.0679 302.158 67.9526 325.034 69.97 329.266C71.9873 333.499 66.8356 341.448 60.4311 339.277C54.0259 337.106 17.5776 310.107 24.9896 297.348C36.3106 277.859 59.0404 238.486 70.209 246.344Z" fill="#FF5C5D"/>
<path fill-rule="evenodd" clip-rule="evenodd" d="M47.0679 302.158C47.0679 302.158 42.7821 297.624 43.1825 297.099C43.5829 296.575 48.4131 300.281 48.4131 300.281L47.0679 302.158Z" fill="black" fill-opacity="0.159856"/>
<path fill-rule="evenodd" clip-rule="evenodd" d="M390.956 492.784C390.956 479.468 401.751 468.673 415.068 468.673L496.198 468.673V551.132C496.198 553.342 494.407 555.132 492.198 555.132H394.956C392.747 555.132 390.956 553.342 390.956 551.132L390.956 492.784Z" fill="#86E5F0"/>
<path fill-rule="evenodd" clip-rule="evenodd" d="M400.465 538.066L477.244 538.066V555.132H400.465V538.066Z" fill="#86E5F0"/>
<path fill-rule="evenodd" clip-rule="evenodd" d="M498.245 554.514L503.088 566.644H479.675L483.732 554.514H498.245Z" fill="#86E5F0"/>
<path fill-rule="evenodd" clip-rule="evenodd" d="M418.474 554.514L423.318 566.644H399.904L403.961 554.514H418.474Z" fill="#91D6FF"/>
<path fill-rule="evenodd" clip-rule="evenodd" d="M577.019 554.514L581.862 566.644H558.449L562.506 554.514H577.019Z" fill="#86E5F0"/>
<path fill-rule="evenodd" clip-rule="evenodd" d="M450.796 403.493C450.796 390.38 461.275 379.671 474.384 379.387L496.796 378.901V476.828H450.796L450.796 403.493Z" fill="#91D6FF"/>
<path fill-rule="evenodd" clip-rule="evenodd" d="M459.77 403.012C459.77 389.696 470.565 378.901 483.881 378.901H560.112C572.174 378.901 581.952 388.679 581.952 400.741V477.076C581.952 478.041 581.17 478.824 580.205 478.824H459.77L459.77 403.012Z" fill="#C6F9FF"/>
<path fill-rule="evenodd" clip-rule="evenodd" d="M547.805 396.818C547.805 386.923 555.827 378.901 565.723 378.901C574.686 378.901 581.952 386.167 581.952 395.13V467.1C581.952 468.065 581.17 468.847 580.205 468.847H547.805V396.818Z" fill="#86E5F0"/>
<path fill-rule="evenodd" clip-rule="evenodd" d="M400.465 490.474C400.465 483.515 406.106 477.874 413.065 477.874H491.345V543.628H400.465V490.474Z" fill="#C6F9FF"/>
<path fill-rule="evenodd" clip-rule="evenodd" d="M494.784 370.394C506.982 367.552 507.785 350.8 498.511 344.989C508.076 324.929 485.958 305.012 470.808 317.295C460.876 313.041 452.623 329.64 461.865 342.532C457.99 364.667 465.876 370.389 480.092 370.632L494.784 370.394Z" fill="#422851"/>
<path fill-rule="evenodd" clip-rule="evenodd" d="M494.632 366.393C494.632 366.393 488.698 365 488.492 355.271C488.287 345.543 488.431 342.223 488.431 342.223L475.361 341.987C475.361 341.987 475.218 352.829 475.216 356.75C475.211 367.283 467.876 366.393 467.876 366.393C467.876 366.393 469.4 374.934 481.244 375.6C490.491 376.121 494.632 366.393 494.632 366.393Z" fill="url(#paint6_linear)"/>
<path fill-rule="evenodd" clip-rule="evenodd" d="M491.478 337.365C497.309 337.139 496.358 345.679 490.301 345.668C490.301 345.668 486.783 357.8 474.569 357.8C464.649 357.8 464.004 343.66 463.914 340.839C463.817 337.831 463.805 327.95 463.805 327.95L491.705 327.937L491.478 337.365Z" fill="url(#paint7_linear)"/>
<path d="M476.923 349.65C476.923 349.65 474.014 352.114 470.645 349.806" stroke="#F77B7B" stroke-width="1.5" stroke-linecap="round"/>
<path d="M475.003 352.504C474.098 352.922 473.226 352.952 472.448 352.536" stroke="#F49494" stroke-linecap="round"/>
<path d="M490.884 341.958C490.824 340.588 491.241 339.5 492.638 339.281" stroke="#F77B7B" stroke-linecap="round"/>
<path fill-rule="evenodd" clip-rule="evenodd" d="M492.4 336.31C492.4 336.31 489.205 340.6 488.557 340.623C487.91 340.646 487.683 335.043 487.683 335.043C483.763 334.743 473.841 332.766 471.409 328.161C469.708 332.225 466.457 334.029 464.321 333.683L463.916 342.316L462.919 324.96H493.182L492.4 336.31Z" fill="#422851"/>
<path fill-rule="evenodd" clip-rule="evenodd" d="M434.913 537.945C434.913 537.945 440.143 548.516 435.855 551.847C431.561 555.179 420.217 561.422 420.217 561.422L450.271 559.532L443.59 536.478L434.913 537.945Z" fill="url(#paint8_linear)"/>
<path fill-rule="evenodd" clip-rule="evenodd" d="M447.364 548.005C445.881 548.179 447.465 553.175 444.253 553.555C441.048 553.934 439.491 549.201 435.854 550.701C432.217 552.202 418.954 559.96 418.431 563.132C417.902 566.303 422.844 567.236 429.621 566.52C436.398 565.804 437.648 563.391 442.735 564.363C447.816 565.334 451.623 563.786 451.455 560.071C451.288 556.357 448.847 547.832 447.364 548.005Z" fill="#222D4E"/>
<path fill-rule="evenodd" clip-rule="evenodd" d="M434.195 551.471L434.855 552.461C435.179 552.947 435.02 553.605 434.511 553.889L425.545 558.895C425.254 559.057 424.902 559.064 424.605 558.914L423.213 558.207C425.399 556.623 427.186 555.433 429.162 554.264C430.678 553.367 432.357 552.442 434.195 551.471Z" fill="white" fill-opacity="0.540975"/>
<path fill-rule="evenodd" clip-rule="evenodd" d="M480.185 444.779C471.087 445.185 420.447 456.392 411.246 458.296C402.046 460.2 394.268 470.502 401.283 482.431C409.163 495.823 429.495 533.854 434.431 542.427C436.874 546.67 449.2 544.291 446.305 537.169C440.907 523.892 438.401 490.539 424.64 478.378C424.64 478.378 470.917 486.436 490.907 477.206C505.435 470.496 502.148 443.796 480.185 444.779Z" fill="url(#paint9_linear)"/>
<path fill-rule="evenodd" clip-rule="evenodd" d="M415.718 390.947C415.718 390.947 415.821 383.54 413.231 379.669C410.642 375.798 410.539 371.686 408.579 371.82C406.619 371.955 408.56 381.513 408.56 381.513C408.56 381.513 406.073 380.562 404.286 379.36C402.5 378.157 397.083 372.23 395.817 373.28C393.671 375.07 397.128 385.165 399.011 387.184C400.9 389.202 411.22 395.841 411.22 395.841L415.718 390.947Z" fill="url(#paint10_linear)"/>
<path fill-rule="evenodd" clip-rule="evenodd" d="M471.631 386.508C467.399 396.33 459.649 414.374 456.454 419.757C452.451 426.498 446.137 429.468 438.745 424.467C430.978 419.211 409.591 398.711 408.963 394.068C408.342 389.424 413.577 383.853 418.313 386.737C423.05 389.622 442.731 406.01 442.731 406.01C442.731 406.01 450.674 385.637 457.064 373.836C462.598 363.626 478.074 371.577 471.631 386.508Z" fill="#6A5EE3"/>
<path fill-rule="evenodd" clip-rule="evenodd" d="M442.649 406.02C442.649 406.02 440.516 413.26 440.017 412.841C439.519 412.422 440.398 404.128 440.398 404.128L442.649 406.02Z" fill="black" fill-opacity="0.302803"/>
<path d="M388.709 372.331C388.3 371.07 388.989 369.716 390.25 369.307L401.617 365.613C402.878 365.204 404.232 365.894 404.641 367.154L413.517 394.471C413.926 395.731 413.236 397.085 411.976 397.495L400.609 401.188C399.348 401.598 397.994 400.908 397.585 399.647L388.709 372.331Z" fill="#7596FF"/>
<rect x="389.031" y="369.24" width="16.7519" height="33.522" rx="2.4" transform="rotate(-18 389.031 369.24)" fill="#93C2F9"/>
<path d="M392.249 369.453L393.457 369.06C393.704 368.98 393.966 369.091 394.085 369.311L394.122 369.399C394.212 369.676 394.509 369.828 394.786 369.738L400.613 367.845C400.859 367.765 401.006 367.521 400.972 367.273L400.951 367.18C400.861 366.903 401.013 366.605 401.29 366.515L402.492 366.125C403.385 365.835 404.341 366.285 404.696 367.137L404.748 367.276L413.149 393.21C413.513 394.342 412.894 395.556 411.764 395.925L402.205 399.031C401.124 399.385 399.965 398.833 399.544 397.794L399.491 397.649C399.491 397.648 399.491 397.648 399.493 397.647L391.094 371.719C390.788 370.774 391.305 369.76 392.249 369.453Z" fill="#E6F3FF"/>
<path fill-rule="evenodd" clip-rule="evenodd" d="M513.929 374.674C513.929 374.674 503.73 408.845 503.428 415.313C503.126 421.782 511.77 440.794 510.298 445.599C506.905 456.704 463.581 461.485 461.926 446.547C461.154 439.58 462.761 433.327 460.91 425.118C459.065 416.909 451.651 404.711 455.856 393.242C460.062 381.773 458.935 371.163 461.943 369.157C464.95 367.152 471.981 365.022 471.981 365.022C475.4 370.056 486.943 369.983 492.451 364.667C492.451 364.667 506.134 367.323 513.929 374.674Z" fill="#7367F0"/>
<path fill-rule="evenodd" clip-rule="evenodd" d="M504.79 380.208C497.991 391.003 498.011 409.799 494.36 412.26C490.709 414.722 476.497 412.306 476.497 414.256C476.497 416.205 496.136 434.07 492.912 442.611C491.224 447.083 491.682 451.083 494.286 454.613L495.136 454.427C502.874 452.678 509.095 449.536 510.298 445.599C511.77 440.794 502.129 421.782 502.431 415.313C502.687 409.822 510.794 384.37 513.239 376.802C511.248 373.288 508.432 374.424 504.79 380.208Z" fill="black" fill-opacity="0.199355"/>
<path fill-rule="evenodd" clip-rule="evenodd" d="M493.196 408.848C493.196 408.848 484.605 401.241 481.975 400.358C479.345 399.475 463.943 398.415 464.04 400.409C464.151 402.547 472.423 402.424 473.28 403.475C474.138 404.526 474.332 411.713 477.573 412.52C480.806 413.326 490.501 414.717 490.501 414.717L493.196 408.848Z" fill="url(#paint11_linear)"/>
<path fill-rule="evenodd" clip-rule="evenodd" d="M516.051 376.637C525.102 389.418 532.83 408.887 535.796 416.477C538.762 424.067 535.77 435.516 522.727 433.268C509.707 431.027 488.992 418.846 486.7 415.293C484.408 411.74 487.89 405.275 492.275 406.121C496.337 406.904 516.488 415.477 516.488 415.477C516.488 415.477 503.524 392.486 500.359 386.323C495.071 376.03 508.079 365.376 516.051 376.637Z" fill="#6A5EE3"/>
<path fill-rule="evenodd" clip-rule="evenodd" d="M516.282 415.319C516.282 415.319 523.072 418.695 522.244 417.279C521.416 415.864 513.691 410.891 513.691 410.891L516.282 415.319Z" fill="black" fill-opacity="0.302803"/>
<path fill-rule="evenodd" clip-rule="evenodd" d="M403.31 538.37C403.31 538.37 403.468 550.811 393.221 555.463C382.981 560.114 375.686 559.834 376.614 563.43C377.543 567.026 404.196 566.881 406.685 564.069C408.807 561.676 413.42 539.399 414.69 541.102L403.31 538.37Z" fill="url(#paint12_linear)"/>
<path fill-rule="evenodd" clip-rule="evenodd" d="M411.417 552.297C410.272 550.085 410.2 556.307 405.687 554.936C402.025 553.823 400.773 547.454 398.458 548.849C396.144 550.244 375.771 561.06 375.655 561.125C373.147 562.477 373.848 566.572 378.084 567.287C382.792 568.081 407.183 567.547 408.492 566.291C409.801 565.036 412.334 554.07 411.417 552.297Z" fill="#222D4E"/>
<path fill-rule="evenodd" clip-rule="evenodd" d="M395.445 552.569C395.843 552.569 396.223 553.069 396.497 553.55C396.764 554.019 396.515 554.589 396.015 554.795L385.504 559.125C385.164 559.265 384.767 559.213 384.523 558.937C384.3 558.685 384.092 558.371 384.195 558.156C384.394 557.741 394.677 552.569 395.445 552.569Z" fill="white" fill-opacity="0.540975"/>
<path fill-rule="evenodd" clip-rule="evenodd" d="M509.691 440.933C509.691 440.933 522.918 468.883 504.329 478.481C486.352 487.762 432.535 476.785 432.535 476.785C432.535 476.785 433.497 484.531 432.535 491.441C430.023 509.486 418.078 539.55 415.551 543.327C412.056 548.551 401.409 544.612 401.209 540.262C401.008 535.912 409.235 480.358 410.486 469.764C411.73 459.169 415.659 457.631 427.135 454.734C429.771 454.069 460.949 446.317 463.805 446.543C488.345 448.484 509.691 440.933 509.691 440.933Z" fill="#2C3757"/>
<path opacity="0.461565" fill-rule="evenodd" clip-rule="evenodd" d="M495.191 475.596C477.393 477.592 430.273 473.479 428.381 475.347C426.574 477.132 426.875 508.175 422.823 526.143L423.439 524.446C427.251 513.854 431.208 500.971 432.535 491.441C433.497 484.531 432.535 476.785 432.535 476.785L434.705 477.205C444.935 479.128 488.51 486.649 504.329 478.481C512.901 474.055 516.399 466.703 514.823 456.424C512.109 468.042 505.565 474.433 495.191 475.596Z" fill="white" fill-opacity="0.192499"/>
<path fill-rule="evenodd" clip-rule="evenodd" d="M476.71 492.784C476.71 479.468 487.505 468.673 500.821 468.673L581.952 468.673V553.385C581.952 554.35 581.17 555.132 580.205 555.132H476.71L476.71 492.784Z" fill="#86E5F0"/>
<path d="M595 508H603C610.732 508 617 514.268 617 522H609C601.268 522 595 515.732 595 508Z" fill="#2CE780"/>
<path d="M605 500H611C614.866 500 618 503.134 618 507H612C608.134 507 605 503.866 605 500Z" fill="#28C76F"/>
<path d="M636 507H629C622.373 507 617 512.373 617 519H624C630.627 519 636 513.627 636 507Z" fill="#28C76F"/>
<path fill-rule="evenodd" clip-rule="evenodd" d="M627.408 494.212L621.714 496.524C617.269 498.329 615.121 503.39 616.91 507.841L622.605 505.529C627.05 503.724 629.198 498.664 627.408 494.212V494.212Z" fill="#2CE780"/>
<path fill-rule="evenodd" clip-rule="evenodd" d="M612.765 493C615.893 494.983 617.877 498.756 617.994 502.897L618 503.286V533H616.395V503.286C616.395 499.802 614.819 496.589 612.267 494.828L612 494.651L612.765 493Z" fill="#28C76F"/>
<path fill-rule="evenodd" clip-rule="evenodd" d="M605.059 523H630.005C631.17 523 632.115 523.925 632.115 525.067V525.126C632.115 526.388 632.728 527.574 633.767 528.322L634.413 528.788C635.451 529.535 636.065 530.722 636.065 531.984V562.872C636.065 565.063 634.251 566.839 632.014 566.839H603.051C600.814 566.839 599 565.063 599 562.872V531.984C599 530.722 599.613 529.535 600.651 528.788L601.298 528.322C602.267 527.624 602.866 526.544 602.941 525.377L602.95 525.067C602.95 523.925 603.894 523 605.059 523Z" fill="#DA4E4F"/>
<mask id="mask2" mask-type="alpha" maskUnits="userSpaceOnUse" x="599" y="523" width="38" height="44">
<path fill-rule="evenodd" clip-rule="evenodd" d="M605.059 523H630.005C631.17 523 632.115 523.925 632.115 525.067V525.126C632.115 526.388 632.728 527.574 633.767 528.322L634.413 528.788C635.451 529.535 636.065 530.722 636.065 531.984V562.872C636.065 565.063 634.251 566.839 632.014 566.839H603.051C600.814 566.839 599 565.063 599 562.872V531.984C599 530.722 599.613 529.535 600.651 528.788L601.298 528.322C602.267 527.624 602.866 526.544 602.941 525.377L602.95 525.067C602.95 523.925 603.894 523 605.059 523Z" fill="white"/>
</mask>
<g mask="url(#mask2)">
<path fill-rule="evenodd" clip-rule="evenodd" d="M597.987 521.016H608.114C603.645 538.063 614.53 552.2 608.114 569.616H597.987V521.016Z" fill="#E95B5C"/>
<rect x="599" y="549.78" width="37.0645" height="3.96734" fill="#FFDFE2" fill-opacity="0.257949"/>
<rect x="599" y="538.869" width="37.0645" height="3.96734" fill="#FFDFE2" fill-opacity="0.257949"/>
</g>
<path fill-rule="evenodd" clip-rule="evenodd" d="M607.371 488.916L612.087 490.275C616.039 491.414 618.324 495.536 617.196 499.491L612.479 498.131C608.527 496.993 606.242 492.87 607.371 488.916V488.916Z" fill="#2CE780"/>
<defs>
<filter id="filter0_f" x="0.563437" y="153.777" width="241.934" height="243.659" filterUnits="userSpaceOnUse" color-interpolation-filters="sRGB">
<feFlood flood-opacity="0" result="BackgroundImageFix"/>
<feBlend mode="normal" in="SourceGraphic" in2="BackgroundImageFix" result="shape"/>
<feGaussianBlur stdDeviation="2.71828" result="effect1_foregroundBlur"/>
</filter>
<filter id="filter1_dd" x="173.229" y="335.514" width="248.702" height="176.768" filterUnits="userSpaceOnUse" color-interpolation-filters="sRGB">
<feFlood flood-opacity="0" result="BackgroundImageFix"/>
<feColorMatrix in="SourceAlpha" type="matrix" values="0 0 0 0 0 0 0 0 0 0 0 0 0 0 0 0 0 0 127 0"/>
<feOffset dx="5" dy="5"/>
<feGaussianBlur stdDeviation="10"/>
<feColorMatrix type="matrix" values="0 0 0 0 0.0755213 0 0 0 0 0.582569 0 0 0 0 0.878793 0 0 0 0.229458 0"/>
<feBlend mode="normal" in2="BackgroundImageFix" result="effect1_dropShadow"/>
<feColorMatrix in="SourceAlpha" type="matrix" values="0 0 0 0 0 0 0 0 0 0 0 0 0 0 0 0 0 0 127 0"/>
<feOffset dy="1"/>
<feGaussianBlur stdDeviation="5.5"/>
<feColorMatrix type="matrix" values="0 0 0 0 0.503982 0 0 0 0 0.700178 0 0 0 0 1 0 0 0 0.233829 0"/>
<feBlend mode="normal" in2="effect1_dropShadow" result="effect2_dropShadow"/>
<feBlend mode="normal" in="SourceGraphic" in2="effect2_dropShadow" result="shape"/>
</filter>
<filter id="filter2_d" x="177.964" y="196.351" width="244.004" height="154.821" filterUnits="userSpaceOnUse" color-interpolation-filters="sRGB">
<feFlood flood-opacity="0" result="BackgroundImageFix"/>
<feColorMatrix in="SourceAlpha" type="matrix" values="0 0 0 0 0 0 0 0 0 0 0 0 0 0 0 0 0 0 127 0"/>
<feOffset dx="6" dy="4"/>
<feGaussianBlur stdDeviation="7"/>
<feColorMatrix type="matrix" values="0 0 0 0 0.0189934 0 0 0 0 0.0189934 0 0 0 0 0.0189934 0 0 0 0.11 0"/>
<feBlend mode="normal" in2="BackgroundImageFix" result="effect1_dropShadow"/>
<feBlend mode="normal" in="SourceGraphic" in2="effect1_dropShadow" result="shape"/>
</filter>
<linearGradient id="paint0_linear" x1="121.964" y1="535.908" x2="123.277" y2="565.378" gradientUnits="userSpaceOnUse">
<stop stop-color="#FDC6C6"/>
<stop offset="1" stop-color="#FAB2B2"/>
</linearGradient>
<linearGradient id="paint1_linear" x1="53.7233" y1="538.515" x2="56.1143" y2="564.585" gradientUnits="userSpaceOnUse">
<stop stop-color="#FDC6C6"/>
<stop offset="1" stop-color="#FAB2B2"/>
</linearGradient>
<linearGradient id="paint2_linear" x1="72.0354" y1="210.658" x2="82.8045" y2="260.315" gradientUnits="userSpaceOnUse">
<stop stop-color="#FFAFAF"/>
<stop offset="1" stop-color="#F07777"/>
</linearGradient>
<linearGradient id="paint3_linear" x1="74.7416" y1="201.187" x2="81.6565" y2="234.798" gradientUnits="userSpaceOnUse">
<stop stop-color="#FDC6C6"/>
<stop offset="1" stop-color="#FAB2B2"/>
</linearGradient>
<linearGradient id="paint4_linear" x1="180.59" y1="240.178" x2="180.945" y2="275.551" gradientUnits="userSpaceOnUse">
<stop stop-color="#FDC6C6"/>
<stop offset="1" stop-color="#FAB2B2"/>
</linearGradient>
<linearGradient id="paint5_linear" x1="53.8739" y1="323.088" x2="54.9348" y2="350.188" gradientUnits="userSpaceOnUse">
<stop stop-color="#FDC6C6"/>
<stop offset="1" stop-color="#FAB2B2"/>
</linearGradient>
<linearGradient id="paint6_linear" x1="503.342" y1="336.993" x2="492.262" y2="386.47" gradientUnits="userSpaceOnUse">
<stop stop-color="#FFAFAF"/>
<stop offset="1" stop-color="#F07777"/>
</linearGradient>
<linearGradient id="paint7_linear" x1="502.481" y1="327.599" x2="495.833" y2="360.118" gradientUnits="userSpaceOnUse">
<stop stop-color="#FDC6C6"/>
<stop offset="1" stop-color="#FAB2B2"/>
</linearGradient>
<linearGradient id="paint8_linear" x1="455.471" y1="530.406" x2="453.878" y2="560.187" gradientUnits="userSpaceOnUse">
<stop stop-color="#FDC6C6"/>
<stop offset="1" stop-color="#FAB2B2"/>
</linearGradient>
<linearGradient id="paint9_linear" x1="424.4" y1="568.758" x2="376.326" y2="476.481" gradientUnits="userSpaceOnUse">
<stop stop-color="#28324F"/>
<stop offset="1" stop-color="#222735"/>
</linearGradient>
<linearGradient id="paint10_linear" x1="419.28" y1="365.969" x2="417.128" y2="394.572" gradientUnits="userSpaceOnUse">
<stop stop-color="#FDC6C6"/>
<stop offset="1" stop-color="#FAB2B2"/>
</linearGradient>
<linearGradient id="paint11_linear" x1="498.241" y1="395.514" x2="497.611" y2="413.984" gradientUnits="userSpaceOnUse">
<stop stop-color="#FDC6C6"/>
<stop offset="1" stop-color="#FAB2B2"/>
</linearGradient>
<linearGradient id="paint12_linear" x1="421.293" y1="531.606" x2="419.735" y2="564.802" gradientUnits="userSpaceOnUse">
<stop stop-color="#FDC6C6"/>
<stop offset="1" stop-color="#FAB2B2"/>
</linearGradient>
</defs>
</svg>
